<svg width="16.000000" height="16.000000" viewBox="0 0 16 16" fill="none" xmlns="http://www.w3.org/2000/svg" xmlns:xlink="http://www.w3.org/1999/xlink">
	<desc>
			Created with Pixso.
	</desc>
	<defs/>
	<path id="Union" d="M0 4L8 1L16 4L16 12.5L8 16L0 12L0 4ZM1 11.38L1 4.9L7.5 7.34L7.5 14.63L1 11.38ZM8.5 14.68L8.5 7.34L15 4.9L15 11.84L8.5 14.68ZM11.65 3.43L13.86 4.26L8 6.46L5.69 5.6L11.66 3.47L11.65 3.43ZM10.25 2.91L8 2.06L2.13 4.26L4.35 5.09L4.33 5.02L10.25 2.91Z" fill="#1A1E29" fill-opacity="1.000000" fill-rule="evenodd"/>
</svg>
