<svg width="12.000000" height="14.000000" viewBox="0 0 12 14" fill="none" xmlns="http://www.w3.org/2000/svg" xmlns:xlink="http://www.w3.org/1999/xlink">
	<desc>
			Created with Pixso.
	</desc>
	<defs/>
	<path id="Union" d="M6 0C3.62 0 0 1 0 1L0 10C0 12.61 6 14 6 14C6 14 12 12.61 12 10L12 1C12 1 8.37 0 6 0ZM1 1.77C1.35 1.68 1.8 1.58 2.31 1.47C3.5 1.23 4.92 1 6 1C7.07 1 8.49 1.23 9.68 1.47C10.19 1.58 10.64 1.68 11 1.77L11 10C11 10.24 10.85 10.57 10.39 10.98C9.94 11.38 9.3 11.75 8.58 12.06C7.89 12.38 7.18 12.62 6.64 12.78C6.37 12.86 6.16 12.92 6 12.96L6 12.96L5.99 12.96C5.83 12.92 5.62 12.86 5.35 12.78C4.81 12.62 4.1 12.38 3.41 12.06C2.69 11.75 2.05 11.38 1.6 10.98C1.14 10.57 1 10.24 1 10L1 1.77ZM9 5L8.29 4.29L5 7.58L3.7 6.29L3 7L5 9L9 5Z" fill="#000000" fill-opacity="1.000000" fill-rule="evenodd"/>
</svg>
