<svg width="16.000000" height="16.000000" viewBox="0 0 16 16" fill="none" xmlns="http://www.w3.org/2000/svg" xmlns:xlink="http://www.w3.org/1999/xlink">
	<desc>
			Created with Pixso.
	</desc>
	<defs/>
	<path id="Union" d="M14 8C14 11.31 11.31 14 8 14C4.68 14 2 11.31 2 8C2 4.68 4.68 2 8 2C11.31 2 14 4.68 14 8ZM15 8C15 11.86 11.86 15 8 15C4.13 15 1 11.86 1 8C1 4.13 4.13 1 8 1C11.86 1 15 4.13 15 8ZM8.5 7.79L8.5 4L7.5 4L7.5 8.2L9.64 10.35L10.35 9.64L8.5 7.79Z" fill="#6A6A6A" fill-opacity="1.000000" fill-rule="evenodd"/>
</svg>
