<svg width="14.000000" height="14.000000" viewBox="0 0 14 14" fill="none" xmlns="http://www.w3.org/2000/svg" xmlns:xlink="http://www.w3.org/1999/xlink">
	<desc>
			Created with Pixso.
	</desc>
	<defs/>
	<path id="Union" d="M6.5 2L6.5 0L7.5 0L7.5 2L6.5 2ZM3.35 2.64L1.35 0.64L0.64 1.35L2.64 3.35L3.35 2.64ZM13.35 12.64L11.35 10.64L10.64 11.35L12.64 13.35L13.35 12.64ZM7 10C8.65 10 10 8.65 10 7C10 5.34 8.65 4 7 4C5.34 4 4 5.34 4 7C4 8.65 5.34 10 7 10ZM7 11C9.21 11 11 9.2 11 7C11 4.79 9.21 3 7 3C4.78 3 3 4.79 3 7C3 9.2 4.78 11 7 11ZM12.64 0.64L10.64 2.64L11.35 3.35L13.35 1.35L12.64 0.64ZM2.64 10.64L0.64 12.64L1.35 13.35L3.35 11.35L2.64 10.64ZM6.5 12L6.5 14L7.5 14L7.5 12L6.5 12ZM2 7.5L0 7.5L0 6.5L2 6.5L2 7.5ZM12 7.5L14 7.5L14 6.5L12 6.5L12 7.5Z" fill="#1A1E29" fill-opacity="1.000000" fill-rule="evenodd"/>
</svg>
