<svg width="14.000000" height="12.624512" viewBox="0 0 14 12.6245" fill="none" xmlns="http://www.w3.org/2000/svg" xmlns:xlink="http://www.w3.org/1999/xlink">
	<desc>
			Created with Pixso.
	</desc>
	<defs/>
	<path id="Union" d="M4.93 1.73L3.93 0L3.06 0.5L4.06 2.23L2.57 2.05L2.45 3.04L4.69 3.31L5.59 4.88C5.34 5.13 5.15 5.45 5.06 5.81L3.25 5.81L1.89 4.01L1.1 4.61L2 5.81L0 5.81L0 6.81L2 6.81L1.1 8.01L1.89 8.61L3.25 6.81L5.06 6.81C5.15 7.16 5.34 7.48 5.59 7.73L4.69 9.3L2.45 9.57L2.57 10.57L4.06 10.39L3.06 12.12L3.93 12.62L4.93 10.89L5.52 12.27L6.44 11.87L5.55 9.8L6.46 8.23C6.63 8.28 6.81 8.31 7 8.31C7.18 8.31 7.36 8.28 7.53 8.23L8.44 9.8L7.55 11.87L8.47 12.27L9.06 10.89L10.06 12.62L10.93 12.12L9.93 10.39L11.42 10.57L11.54 9.57L9.3 9.3L8.4 7.73C8.65 7.48 8.84 7.16 8.93 6.81L10.75 6.81L12.1 8.61L12.89 8.01L12 6.81L14 6.81L14 5.81L12 5.81L12.89 4.61L12.1 4.01L10.75 5.81L8.93 5.81C8.84 5.45 8.65 5.13 8.4 4.88L9.3 3.31L11.54 3.04L11.42 2.05L9.93 2.23L10.93 0.5L10.06 0L9.06 1.73L8.47 0.35L7.55 0.74L8.44 2.81L7.53 4.38C7.36 4.33 7.18 4.31 7 4.31C6.81 4.31 6.63 4.33 6.46 4.38L5.55 2.81L6.44 0.74L5.52 0.35L4.93 1.73ZM7 7.31C7.55 7.31 8 6.86 8 6.31C8 5.75 7.55 5.31 7 5.31C6.44 5.31 6 5.75 6 6.31C6 6.86 6.44 7.31 7 7.31Z" fill="#1A1E29" fill-opacity="1.000000" fill-rule="evenodd"/>
</svg>
