<svg width="14.000000" height="14.000000" viewBox="0 0 14 14" fill="none" xmlns="http://www.w3.org/2000/svg" xmlns:xlink="http://www.w3.org/1999/xlink">
	<desc>
			Created with Pixso.
	</desc>
	<defs/>
	<path id="Union" d="M0 6.39C0 4.15 0 3.03 0.43 2.18C0.82 1.43 1.42 0.81 2.18 0.43C3.03 0 4.16 0 6.39 0L7.6 0C9.83 0 10.96 0 11.81 0.43C12.57 0.81 13.17 1.43 13.56 2.18C14 3.03 14 4.15 14 6.39L14 7.6C14 9.84 14 10.96 13.56 11.81C13.17 12.56 12.57 13.18 11.81 13.56C10.96 14 9.83 14 7.6 14L6.39 14C4.16 14 3.03 14 2.18 13.56C1.42 13.18 0.82 12.56 0.43 11.81C0 10.96 0 9.84 0 7.6L0 6.39ZM6.39 1L7.6 1C8.73 1 9.52 1 10.14 1.05C10.75 1.1 11.09 1.19 11.36 1.32C11.92 1.61 12.38 2.07 12.67 2.63C12.8 2.9 12.89 3.24 12.94 3.85C13 4.47 13 5.26 13 6.39L13 7.6C13 8.73 13 9.52 12.94 10.14C12.89 10.75 12.8 11.09 12.67 11.36C12.38 11.92 11.92 12.38 11.36 12.67C11.09 12.8 10.75 12.89 10.14 12.94C9.52 12.99 8.73 13 7.6 13L6.39 13C5.26 13 4.47 12.99 3.85 12.94C3.25 12.89 2.9 12.8 2.63 12.67C2.07 12.38 1.61 11.92 1.32 11.36C1.19 11.09 1.1 10.75 1.05 10.14C1 9.52 1 8.73 1 7.6L1 6.39C1 5.26 1 4.47 1.05 3.85C1.1 3.24 1.19 2.9 1.32 2.63C1.61 2.07 2.07 1.61 2.63 1.32C2.9 1.19 3.25 1.1 3.85 1.05C4.47 1 5.26 1 6.39 1ZM10 4C10.55 4 11 3.55 11 3C11 2.44 10.55 2 10 2C9.44 2 9 2.44 9 3C9 3.55 9.44 4 10 4ZM7 10C8.65 10 10 8.65 10 7C10 5.34 8.65 4 7 4C5.34 4 4 5.34 4 7C4 8.65 5.34 10 7 10ZM7 9C8.1 9 9 8.1 9 7C9 5.89 8.1 5 7 5C5.89 5 5 5.89 5 7C5 8.1 5.89 9 7 9Z" fill="#000000" fill-opacity="1.000000" fill-rule="evenodd"/>
	<path id="Union" d="M9.08 0C9.51 0.01 9.89 0.02 10.22 0.05C10.56 0.08 10.86 0.12 11.1 0.18L11.1 0.18C11.12 0.18 11.13 0.18 11.14 0.19C11.38 0.25 11.6 0.33 11.81 0.43C11.81 0.43 11.81 0.43 11.81 0.43C11.82 0.44 11.83 0.44 11.85 0.45C12.21 0.64 12.54 0.88 12.82 1.17C13.11 1.45 13.35 1.77 13.53 2.13C13.54 2.15 13.55 2.16 13.56 2.18C13.66 2.38 13.75 2.61 13.8 2.85C13.81 2.86 13.81 2.87 13.81 2.88C13.81 2.89 13.81 2.89 13.81 2.89C13.87 3.14 13.91 3.43 13.94 3.77C13.96 4.05 13.98 4.4 13.99 4.82C13.99 4.85 13.99 4.88 13.99 4.91L13.99 4.91C14 5.35 14 5.84 14 6.39L14 7.6C14 8.15 14 8.64 13.99 9.08L13.99 9.08C13.98 9.51 13.97 9.89 13.94 10.22C13.91 10.56 13.87 10.85 13.81 11.1C13.81 11.1 13.81 11.1 13.81 11.11C13.81 11.12 13.81 11.13 13.8 11.14C13.75 11.38 13.66 11.61 13.56 11.81C13.37 12.19 13.12 12.53 12.82 12.82C12.54 13.11 12.21 13.35 11.86 13.54C11.84 13.54 11.83 13.55 11.81 13.56C11.61 13.66 11.39 13.74 11.14 13.8C11.13 13.81 11.12 13.81 11.1 13.81C11.1 13.81 11.1 13.81 11.1 13.81C10.85 13.87 10.56 13.91 10.22 13.94C9.94 13.96 9.59 13.98 9.16 13.99C9.14 13.99 9.11 13.99 9.08 13.99L9.08 13.99C8.64 14 8.16 14 7.6 14L6.39 14C5.83 14 5.35 14 4.91 13.99L4.91 13.99C4.05 13.97 3.41 13.93 2.89 13.81C2.89 13.81 2.89 13.81 2.89 13.81C2.87 13.81 2.86 13.81 2.85 13.8C2.6 13.74 2.38 13.66 2.18 13.56C1.8 13.37 1.46 13.12 1.17 12.82C0.87 12.53 0.62 12.19 0.43 11.81C0.33 11.61 0.25 11.38 0.19 11.14C0.18 11.13 0.18 11.12 0.18 11.11L0.18 11.11C0.12 10.86 0.08 10.56 0.05 10.22C0.02 9.89 0.01 9.51 0 9.08C0 8.64 0 8.15 0 7.6L0 6.39C0 5.84 0 5.35 0 4.91C0.01 4.48 0.02 4.1 0.05 3.77C0.08 3.43 0.12 3.14 0.18 2.88C0.24 2.63 0.32 2.4 0.43 2.18C0.43 2.18 0.43 2.18 0.43 2.18C0.43 2.18 0.43 2.18 0.43 2.17C0.62 1.8 0.87 1.46 1.17 1.17C1.46 0.87 1.8 0.62 2.17 0.43C2.17 0.43 2.18 0.43 2.18 0.43C2.18 0.43 2.18 0.43 2.18 0.43C2.4 0.32 2.62 0.24 2.89 0.18C3.14 0.12 3.43 0.08 3.77 0.05C4.1 0.02 4.48 0.01 4.91 0C5.35 0 5.83 0 6.39 0L7.6 0C8.16 0 8.64 0 9.08 0ZM1.15 3.14C1.15 3.13 1.15 3.12 1.15 3.11C1.19 2.93 1.25 2.77 1.32 2.63C1.46 2.35 1.65 2.1 1.87 1.88C1.87 1.88 1.87 1.87 1.87 1.87C1.87 1.87 1.87 1.87 1.88 1.87C2.1 1.65 2.35 1.47 2.63 1.32C2.64 1.32 2.64 1.32 2.64 1.32C2.77 1.25 2.92 1.2 3.11 1.15L3.11 1.15C3.12 1.15 3.13 1.15 3.14 1.15C3.33 1.1 3.56 1.07 3.85 1.05C4.16 1.02 4.51 1.01 4.93 1L4.94 1C5.35 1 5.83 1 6.39 1L7.6 1C8.16 1 8.64 1 9.05 1L9.06 1C9.29 1.01 9.5 1.01 9.69 1.02C9.85 1.03 10 1.03 10.14 1.05C10.16 1.05 10.18 1.05 10.2 1.05C10.37 1.07 10.53 1.09 10.66 1.11C10.73 1.12 10.8 1.13 10.85 1.15C10.86 1.15 10.87 1.15 10.88 1.15C11.06 1.2 11.22 1.25 11.36 1.32C11.37 1.33 11.37 1.33 11.38 1.34C11.66 1.48 11.9 1.66 12.12 1.87C12.33 2.08 12.51 2.33 12.65 2.59C12.66 2.61 12.66 2.62 12.67 2.63C12.73 2.76 12.79 2.92 12.84 3.11C12.89 3.31 12.92 3.55 12.94 3.85C12.97 4.16 12.98 4.51 12.99 4.93C13 5.34 13 5.83 13 6.39L13 7.6C13 8.16 13 8.65 12.99 9.06C12.98 9.48 12.97 9.83 12.94 10.14C12.94 10.16 12.94 10.18 12.94 10.2C12.92 10.46 12.88 10.69 12.84 10.87C12.84 10.87 12.84 10.88 12.84 10.88C12.79 11.07 12.73 11.23 12.67 11.36C12.66 11.37 12.66 11.37 12.66 11.38C12.51 11.66 12.33 11.9 12.12 12.12C11.91 12.33 11.66 12.51 11.4 12.65C11.38 12.65 11.37 12.66 11.36 12.67C11.23 12.74 11.07 12.79 10.88 12.84C10.87 12.84 10.86 12.84 10.85 12.84C10.67 12.88 10.46 12.92 10.2 12.94C10.18 12.94 10.16 12.94 10.14 12.94C9.83 12.97 9.48 12.98 9.06 12.99C8.65 12.99 8.16 13 7.6 13L6.39 13C5.83 13 5.34 12.99 4.93 12.99C4.51 12.98 4.16 12.97 3.85 12.94C3.83 12.94 3.81 12.94 3.79 12.94C3.53 12.92 3.3 12.88 3.12 12.84C3.12 12.84 3.12 12.84 3.11 12.84C2.93 12.79 2.77 12.74 2.63 12.67C2.62 12.66 2.62 12.66 2.61 12.65C2.33 12.51 2.09 12.33 1.87 12.12C1.66 11.91 1.48 11.66 1.34 11.4C1.33 11.38 1.33 11.37 1.32 11.36C1.25 11.22 1.19 11.06 1.15 10.88C1.15 10.87 1.15 10.86 1.15 10.85C1.1 10.67 1.07 10.46 1.05 10.2C1.05 10.18 1.05 10.16 1.05 10.14C1.02 9.83 1.01 9.48 1 9.06L1 9.05C1 8.64 1 8.16 1 7.6L1 6.39C1 5.83 1 5.34 1 4.93C1.01 4.51 1.02 4.16 1.05 3.85C1.07 3.56 1.1 3.33 1.15 3.14ZM10.4 2.08C10.28 2.03 10.14 2 10 2C9.91 2 9.83 2 9.76 2.02C9.32 2.13 9 2.52 9 3C9 3.31 9.14 3.59 9.37 3.77C9.39 3.79 9.41 3.8 9.42 3.82C9.58 3.93 9.78 4 10 4C10.55 4 11 3.55 11 3C11 2.59 10.75 2.24 10.4 2.08ZM8.77 4.57C8.64 4.48 8.51 4.4 8.37 4.33C8.22 4.25 8.06 4.19 7.9 4.13C7.62 4.04 7.31 4 7 4C6.68 4 6.37 4.04 6.09 4.13C5.93 4.19 5.77 4.25 5.62 4.33C5.35 4.47 5.1 4.65 4.88 4.87C4.87 4.87 4.87 4.87 4.87 4.87C4.87 4.87 4.87 4.88 4.87 4.88C4.66 5.09 4.47 5.35 4.33 5.62C4.25 5.77 4.19 5.93 4.14 6.09C4.04 6.37 4 6.68 4 7C4 7.31 4.04 7.61 4.14 7.9C4.19 8.06 4.25 8.22 4.33 8.37C4.47 8.65 4.66 8.9 4.87 9.12C4.88 9.12 4.88 9.12 4.88 9.13C5.1 9.34 5.35 9.52 5.62 9.66C5.77 9.74 5.93 9.81 6.09 9.86C6.38 9.95 6.68 10 7 10C7.31 10 7.62 9.95 7.9 9.86C8.06 9.8 8.22 9.74 8.37 9.66C8.64 9.52 8.89 9.34 9.11 9.13C9.11 9.12 9.11 9.12 9.12 9.12C9.12 9.11 9.12 9.11 9.13 9.11C9.34 8.89 9.52 8.64 9.66 8.37C9.74 8.22 9.8 8.06 9.86 7.9C9.95 7.61 10 7.31 10 7C10 6.68 9.94 6.37 9.85 6.09C9.8 5.93 9.74 5.77 9.66 5.62C9.52 5.35 9.34 5.1 9.13 4.88C9.12 4.88 9.12 4.88 9.12 4.87C9.11 4.87 9.11 4.87 9.11 4.87C9.02 4.78 8.92 4.69 8.82 4.62C8.8 4.6 8.79 4.59 8.77 4.57ZM8.41 8.41C8.77 8.05 9 7.55 9 7C9 6.44 8.77 5.94 8.41 5.58C8.05 5.22 7.55 5 7 5L6.99 5C6.44 5 5.94 5.22 5.58 5.58C5.58 5.58 5.58 5.58 5.58 5.58C5.58 5.58 5.58 5.58 5.58 5.58C5.22 5.94 5 6.44 5 6.99L5 7L5 7C5 7.55 5.22 8.05 5.58 8.41C5.94 8.77 6.44 9 7 9C7.55 9 8.05 8.77 8.41 8.41Z" fill="#FF7E00" fill-opacity="1.000000" fill-rule="evenodd"/>
</svg>
