<svg width="16.000000" height="9.129150" viewBox="0 0 16 9.12915" fill="none" xmlns="http://www.w3.org/2000/svg" xmlns:xlink="http://www.w3.org/1999/xlink">
	<desc>
			Created with Pixso.
	</desc>
	<defs/>
	<path id="Vector" d="M15.85 8.14C15.81 8.07 15.54 7.49 14.26 6.3C12.92 5.06 13.1 5.26 14.72 3.11C15.7 1.8 16.09 1 15.97 0.65C15.85 0.33 15.13 0.41 15.13 0.41L12.73 0.43C12.73 0.43 12.55 0.4 12.42 0.48C12.29 0.56 12.2 0.74 12.2 0.74C12.2 0.74 11.82 1.76 11.32 2.62C10.24 4.44 9.82 4.53 9.64 4.42C9.23 4.16 9.33 3.36 9.33 2.8C9.33 1.03 9.6 0.3 8.81 0.11C8.55 0.05 8.36 0 7.69 0C6.83 -0.01 6.1 0 5.69 0.2C5.42 0.34 5.21 0.63 5.34 0.65C5.5 0.67 5.86 0.75 6.05 1.01C6.3 1.34 6.28 2.1 6.28 2.1C6.28 2.1 6.43 4.17 5.96 4.43C5.63 4.61 5.19 4.25 4.23 2.6C3.74 1.75 3.37 0.82 3.37 0.82C3.37 0.82 3.3 0.64 3.17 0.55C3.02 0.44 2.8 0.4 2.8 0.4L0.51 0.41C0.51 0.41 0.17 0.42 0.05 0.57C-0.06 0.71 0.04 0.98 0.04 0.98C0.04 0.98 1.83 5.17 3.85 7.28C5.71 9.21 7.82 9.09 7.82 9.09L8.78 9.09C8.78 9.09 9.07 9.05 9.22 8.89C9.35 8.75 9.35 8.47 9.35 8.47C9.35 8.47 9.33 7.19 9.92 7C10.51 6.82 11.26 8.24 12.07 8.79C12.67 9.21 13.13 9.12 13.13 9.12L15.26 9.09C15.26 9.09 16.38 9.02 15.85 8.14Z" fill="#FF7E00" fill-opacity="1.000000" fill-rule="nonzero"/>
</svg>
