<svg width="18" height="24" viewBox="0 0 18 24" fill="none" xmlns="http://www.w3.org/2000/svg">
<path fill-rule="evenodd" clip-rule="evenodd" d="M13.5 5.78571C13.5 7.01989 12.9581 8.651 12.0196 9.97269C11.0623 11.3209 9.95635 12 9 12C8.04365 12 6.93771 11.3209 5.9804 9.97269C5.04193 8.651 4.5 7.01989 4.5 5.78571C4.5 3.46973 6.46283 1.5 9 1.5C11.5372 1.5 13.5 3.46973 13.5 5.78571ZM15 5.78571C15 8.98108 12.3137 13.5 9 13.5C5.68629 13.5 3 8.98108 3 5.78571C3 2.59035 5.68629 0 9 0C12.3137 0 15 2.59035 15 5.78571ZM9 15C7.49137 15 6.18209 15.0466 5.07247 15.2069C3.96432 15.367 3.00212 15.6472 2.21943 16.1504C0.576148 17.2068 0 19.0483 0 21.75V22.1514L0.333975 22.374L0.75 21.75C0.333975 22.374 0.334359 22.3743 0.334751 22.3746L0.33558 22.3751L0.337394 22.3763L0.341655 22.3791L0.352717 22.3862L0.385118 22.4065C0.411332 22.4225 0.446821 22.4436 0.491946 22.4688C0.582211 22.5194 0.710939 22.5868 0.881019 22.6653C1.22129 22.8224 1.72627 23.0232 2.41896 23.2211C3.80472 23.6171 5.93713 24 9 24C12.0629 24 14.1953 23.6171 15.581 23.2211C16.2737 23.0232 16.7787 22.8224 17.119 22.6653C17.2891 22.5868 17.4178 22.5194 17.5081 22.4688C17.5532 22.4436 17.5887 22.4225 17.6149 22.4065L17.6473 22.3862L17.6583 22.3791L17.6626 22.3763L17.6644 22.3751L17.6652 22.3746C17.6656 22.3743 17.666 22.374 17.25 21.75L17.666 22.374L18 22.1514V21.75C18 19.0483 17.4239 17.2068 15.7806 16.1504C14.9979 15.6472 14.0357 15.367 12.9275 15.2069C11.8179 15.0466 10.5086 15 9 15ZM1.50961 21.3034L1.50602 21.3018C1.56812 19.0632 2.10836 18.005 3.03057 17.4121C3.56038 17.0715 4.28568 16.8361 5.28691 16.6915C6.28666 16.5471 7.50863 16.5 9 16.5C10.4914 16.5 11.7133 16.5471 12.7131 16.6915C13.7143 16.8361 14.4396 17.0715 14.9694 17.4121C15.8916 18.005 16.4319 19.0632 16.494 21.3017L16.4904 21.3034C16.2213 21.4276 15.7888 21.6018 15.169 21.7789C13.9297 22.1329 11.9371 22.5 9 22.5C6.06287 22.5 4.07028 22.1329 2.83104 21.7789C2.21123 21.6018 1.77871 21.4276 1.50961 21.3034Z" fill="white"/>
</svg>
