<svg width="80" height="80" viewBox="0 0 80 80" fill="none" xmlns="http://www.w3.org/2000/svg">
<rect width="80" height="80" fill="#1A1E29"/>
<path fill-rule="evenodd" clip-rule="evenodd" d="M44 39.5C44 41.9853 41.9853 44 39.5 44C37.0147 44 35 41.9853 35 39.5C35 37.0147 37.0147 35 39.5 35C41.9853 35 44 37.0147 44 39.5ZM43.0195 43.7266C42.0658 44.5217 40.8387 45 39.5 45C36.4624 45 34 42.5376 34 39.5C34 36.4624 36.4624 34 39.5 34C42.5376 34 45 36.4624 45 39.5C45 40.8387 44.5217 42.0658 43.7266 43.0195L46.3536 45.6464L45.6464 46.3536L43.0195 43.7266Z" fill="white"/>
</svg>
