<svg width="96" height="96" viewBox="0 0 96 96" fill="none" xmlns="http://www.w3.org/2000/svg">
<path d="M23.1027 19.418C17.0421 27.6853 14.0196 37.6753 14.0352 49.3881C14.0204 61.1008 17.0429 71.0908 23.1027 79.3581C28.1 86.179 34.1693 90.164 41.3106 91.313C38.7444 89.2015 36.3314 86.6341 34.1087 83.6318C26.981 74.033 23.3733 62.3166 23.3881 48.8111C23.3733 35.3007 26.981 23.5793 34.1112 13.978C35.8098 11.6579 37.732 9.51019 39.8502 7.56567C33.4873 8.92887 27.9048 12.8797 23.1027 19.418Z" fill="white"/>
<path d="M36.7856 5.38012C33.0933 5.35761 29.4391 6.12603 26.0687 7.63371C21.5948 9.65997 17.467 13.1231 13.8036 17.9268C7.31592 26.4383 4.03313 36.8699 4.04302 48.9384C4.02819 61.0156 7.31097 71.4533 13.8036 79.9636C16.1091 82.9746 18.595 85.4691 21.1896 87.3767C22.9658 88.696 24.9005 89.7872 26.9483 90.6249C30.0708 91.893 33.4118 92.5357 36.7819 92.5165C37.9217 92.5099 39.0601 92.434 40.1907 92.2892C36.9432 91.747 33.816 90.6393 30.9514 89.0163C30.0724 88.5264 29.2199 87.9902 28.3976 87.4101C25.6317 85.4604 23.0371 82.9766 20.6138 79.9587C13.8283 71.483 10.4327 61.2409 10.427 49.2325C10.4212 37.224 13.8168 26.982 20.6138 18.5063C26.5666 11.0594 33.6062 6.8821 41.7326 5.97441C41.7833 5.93487 41.8339 5.89039 41.8858 5.85085C41.6387 5.80267 41.3829 5.75695 41.1309 5.71618C39.6934 5.49132 38.2405 5.37896 36.7856 5.38012Z" fill="white"/>
<path d="M45.2785 5.31829C45.2673 5.31085 45.2542 5.30688 45.2408 5.30688C45.2274 5.30688 45.2143 5.31085 45.2031 5.31829L45.2785 5.42455C45.3283 5.3807 45.3845 5.34485 45.4453 5.31829C45.3907 5.30343 45.3331 5.30343 45.2785 5.31829Z" fill="white"/>
<path d="M46.0034 40.7185C46.437 39.8319 46.9608 38.9923 47.5664 38.2129C47.6899 38.0424 47.8234 37.883 47.9618 37.7273C48.0204 37.6523 48.0831 37.5806 48.1495 37.5124C48.982 36.5416 49.9791 35.7252 51.095 35.1006L51.1197 35.0895C46.3959 29.262 42.2623 24.8334 38.7188 21.8039C38.2407 21.4061 37.7749 21.0354 37.3202 20.6858C36.9323 21.2381 36.5369 21.841 36.0723 22.5873C35.7709 23.0617 35.4892 23.5398 35.2248 24.0266C35.9191 24.4257 36.5999 24.8396 37.2584 25.2745C36.5999 24.8396 35.9191 24.4257 35.2248 24.0266C34.843 24.6901 34.5007 25.3264 34.1548 26.0183C34.1103 26.1073 34.072 26.2012 34.0312 26.2901C34.8183 26.8832 35.5954 27.5256 36.3664 28.2249C39.7756 31.3228 42.988 35.4873 46.0034 40.7185Z" fill="white"/>
<path d="M65.7599 29.5161L60.9414 35.3082C62.1657 36.0674 63.244 37.0399 64.1253 38.1795C65.0379 39.3378 65.7667 40.6296 66.2863 42.0097L72.2489 32.1181L76.9747 24.2861L78.4413 21.8385C78.1547 19.7072 77.1267 18.4223 75.3426 17.9998L74.5568 18.9215L66.7273 28.3522C66.8427 28.5836 66.9629 28.804 67.0881 29.0132C66.9621 28.8032 66.8418 28.5828 66.7273 28.3522L65.7599 29.5161Z" fill="white"/>
<path d="M52.8088 34.3803C53.7758 34.064 54.7863 33.901 55.8037 33.8972C55.8914 33.8972 55.9779 33.891 56.0632 33.891C56.3135 33.8914 56.5635 33.907 56.8119 33.938C57.9055 34.0357 58.9739 34.3221 59.9699 34.7843C60.676 29.7582 60.676 24.658 59.9699 19.6319C59.3914 15.6448 58.4142 11.7258 57.0528 7.93395C56.3935 7.49552 55.6206 7.25894 54.8289 7.25317C54.0579 7.25317 53.2569 7.4801 52.4258 7.93395C52.9569 10.8937 53.3252 13.8803 53.5291 16.8804C53.918 22.7226 53.6765 28.5897 52.8088 34.3803Z" fill="white"/>
<path d="M37.721 50.295C37.943 50.8463 38.2439 51.3623 38.6143 51.8271C40.847 52.1554 43.0602 52.605 45.2441 53.1738C44.688 51.4707 44.4081 49.6896 44.415 47.8981C44.4139 46.5577 44.5665 45.2216 44.8697 43.916C42.8262 44.6861 40.7239 45.2901 38.5834 45.7223C37.0019 46.0363 35.4019 46.248 33.7932 46.3562C32.2514 46.4495 30.7053 46.447 29.1637 46.3488C29.1279 47.1247 29.1094 47.9673 29.1094 48.9434C29.1094 49.7501 29.1242 50.5594 29.1514 51.3501C30.6945 51.2785 32.2624 51.2773 33.8686 51.3613C35.4254 51.4366 36.997 51.6084 38.6143 51.8295C38.2437 51.364 37.9427 50.8471 37.721 50.295Z" fill="white"/>
<path d="M80.8089 51.3849C82.5621 51.4602 84.361 51.6418 86.1896 51.8988C86.2891 51.6467 86.3749 51.3893 86.4466 51.1279C87.0359 49.1177 86.8543 47.2137 85.9326 45.4296C84.2732 45.7952 82.5837 46.0078 80.8855 46.0647C76.9886 46.2113 72.3736 45.7768 67.0402 44.7612C67.0946 45.0713 67.1453 45.4049 67.1922 45.7781C67.2589 46.4354 67.296 47.0754 67.3158 47.8451C67.3195 49.5786 67.0629 51.3028 66.5547 52.9601C70.9457 51.6703 75.6971 51.1452 80.8089 51.3849Z" fill="white"/>
<path d="M78.2556 74.4926C77.8022 73.4498 77.3191 72.4367 76.8199 71.4396C73.8734 65.6246 69.9859 60.3365 65.3148 55.7893C64.9647 56.4257 64.5661 57.0341 64.1225 57.6092L64.0508 57.6969C63.863 57.9255 63.6802 58.1504 63.4862 58.3678C64.1114 58.8793 64.7291 59.4044 65.3395 59.953C64.7316 59.4044 64.1138 58.8793 63.4862 58.3678L63.4195 58.4481L63.3676 58.505C62.5116 59.4234 61.5097 60.1941 60.4023 60.7857C62.6104 62.325 64.7122 64.0111 66.6936 65.8328C70.8203 69.6864 73.2839 73.4931 74.1154 77.228C74.1302 77.3034 74.145 77.364 74.1599 77.4393C74.3129 78.1554 74.3989 78.8842 74.4169 79.6163C76.6408 79.2531 77.9253 78.2556 78.2704 76.6239C78.4064 76.0036 78.3915 75.2932 78.2556 74.4926Z" fill="white"/>
<path d="M51.0484 60.6586C50.0724 60.1012 49.1874 59.3979 48.4241 58.573C48.1684 58.3024 47.8916 57.9787 47.6025 57.6142C47.3653 57.3115 47.1441 56.9965 46.9316 56.679C45.2958 62.2232 42.2309 67.0528 37.7369 71.1679C36.872 71.9525 35.9627 72.7049 35.0039 73.4363C35.0434 73.5055 35.0793 73.5772 35.1188 73.6476C35.5031 74.3321 35.9305 75.0487 36.3939 75.7838C36.5866 76.0668 36.7806 76.3633 36.9733 76.661L37.0227 76.7302C37.8567 76.2027 38.6722 75.664 39.4444 75.0969C44.7769 71.2132 48.7153 66.4392 51.2597 60.7747L51.0484 60.6586Z" fill="white"/>
<path d="M56.3324 61.8842C56.2089 61.8903 56.0853 61.9027 55.9556 61.9052H55.8605C54.9262 61.9025 53.9971 61.766 53.1016 61.4999C55.3749 67.7525 56.0676 74.5268 55.1797 81.823C54.9227 83.9086 54.3873 86.3417 53.5735 89.1225C53.8305 89.2584 54.0875 89.3943 54.3445 89.5005C55.0651 89.8204 55.8572 89.9453 56.6413 89.8625C56.7192 89.3683 56.7896 88.8741 56.8575 88.3898C56.7896 88.884 56.7192 89.3708 56.6413 89.8625C56.7783 89.8502 56.9144 89.83 57.0491 89.802C57.5542 89.6726 58.0276 89.4413 58.4402 89.1225C58.848 85.663 59.1494 82.4581 59.3768 79.5101C59.9319 71.5575 59.7866 65.5228 58.9406 61.406C58.0973 61.6843 57.2197 61.8452 56.3324 61.8842Z" fill="white"/>
<path d="M49.6457 38.8861C49.6063 38.9235 49.5711 38.9649 49.5406 39.0097C49.4168 39.1445 49.3005 39.2859 49.1922 39.4335C48.3517 40.4911 47.6928 41.681 47.2426 42.9547C46.6983 44.545 46.4276 46.216 46.4419 47.8968C46.4419 50.0886 46.8497 52.0531 47.6515 53.8211V53.8359C48.0627 54.7357 48.5799 55.5831 49.1922 56.3601C49.4196 56.648 49.6617 56.9346 49.9026 57.1916C50.527 57.8666 51.2507 58.4424 52.0487 58.8991H52.0636C53.2207 59.5533 54.5286 59.894 55.8579 59.8875H55.9184C56.5178 59.8803 57.1146 59.8061 57.6975 59.6664C56.1247 59.4934 54.1269 58.7002 52.4194 56.2155C50.9874 54.1152 50.2634 51.5984 50.2634 48.7345C50.2634 45.8705 50.9874 43.3402 52.4145 41.246C52.5046 41.1224 52.6702 40.8827 53.325 40.1958C54.0794 39.4035 55.011 38.8014 56.0432 38.4389C57.0464 38.0843 58.1362 37.7458 58.424 37.7458C59.6734 37.7425 60.8972 38.0994 61.949 38.7737C61.2843 38.022 60.5034 37.3817 59.6361 36.8772C58.7011 36.3559 57.665 36.0416 56.5979 35.9555C56.3523 35.922 56.1041 35.9116 55.8566 35.9246C54.6671 35.9135 53.4917 36.1827 52.4256 36.7104C52.3056 36.7567 52.1895 36.8125 52.0784 36.8772C51.1534 37.3953 50.3293 38.0758 49.6457 38.8861Z" fill="white"/>
<path d="M54.0919 42.3766C52.8971 44.1298 52.293 46.2462 52.293 48.7247C52.293 51.2031 52.8971 53.3035 54.0919 55.0567C55.2866 56.8099 56.7211 57.6711 58.4286 57.6711C59.8642 57.6711 61.1195 57.0373 62.2068 55.782C62.1314 55.5411 62.0561 55.2989 61.9807 55.0716C62.0561 55.2989 62.1314 55.5411 62.2068 55.782C62.388 55.5555 62.5696 55.3137 62.7517 55.0567C63.0145 54.6698 63.2518 54.2662 63.4621 53.8484C64.1869 52.3518 64.5493 50.6439 64.5493 48.7247C64.5493 46.2462 63.9452 44.1298 62.7517 42.3766C61.5581 40.6234 60.1212 39.7622 58.4273 39.7622C55.7327 39.7622 54.2723 42.1196 54.0919 42.3766ZM61.0886 41.6661C61.3168 42.2361 61.5227 42.8036 61.7064 43.3687C61.526 42.8028 61.3201 42.2353 61.0886 41.6661Z" fill="white"/>
<path d="M51.4917 89.0545L51.6325 88.5517C52.1465 86.8022 52.5357 85.1923 52.8186 83.7146C50.962 84.9829 48.9327 85.9778 46.793 86.6687C48.2696 87.6294 49.8448 88.4292 51.4917 89.0545Z" fill="white"/>
<path d="M50.5783 9.177C48.1972 10.2011 45.9826 11.5754 44.0078 13.2542C46.7416 13.4453 49.1986 14.1681 51.3789 15.4226C51.1998 13.3852 50.9317 11.2935 50.5783 9.177Z" fill="white"/>
<path d="M83.0289 21.0168C82.6199 20.4188 82.1973 19.8356 81.7748 19.2685C75.701 11.2191 68.6177 7.30005 60.1248 7.30005H59.7257C59.4786 7.30005 59.2315 7.31117 58.9844 7.31982C60.3782 11.2191 61.3806 15.2474 61.9768 19.3451C62.1238 20.4028 62.2326 21.4616 62.3203 22.5204C63.3682 24.0208 64.249 25.6312 64.947 27.3229L65.1669 27.0597L72.9952 17.629L73.5018 17.0347C72.6176 15.5113 71.6228 14.0548 70.5254 12.677C71.6228 14.0548 72.6176 15.5113 73.5018 17.0347L74.6026 15.7424L75.8085 16.029C78.4031 16.6468 80.0488 18.6125 80.4478 21.5691L80.543 22.2721L78.7119 25.33L77.8471 26.7607L73.9774 33.1657L68.1087 42.9016C72.3367 43.6763 76.1136 44.0679 79.368 44.0679C79.8622 44.0679 80.3416 44.0593 80.8111 44.042H80.8185C82.3885 43.989 83.9505 43.7934 85.4851 43.4576L87.0146 43.1092L87.735 44.5028C88.9087 46.7712 89.1299 49.1978 88.3935 51.7022C88.3024 52.0312 88.1935 52.3549 88.0673 52.6721L87.4767 54.1251L85.9175 53.9052C84.0346 53.6407 82.3345 53.4789 80.7283 53.4109C79.9413 53.3739 79.1629 53.3553 78.4031 53.3553C74.4568 53.3553 70.7231 53.8594 67.2698 54.8553C71.8631 59.4451 75.6996 64.7341 78.6366 70.5254C79.216 71.6855 79.7016 72.7172 80.1192 73.6858L80.2168 73.9119L80.2588 74.159C80.4441 75.255 80.4429 76.2051 80.2588 77.0625C79.8882 78.7861 78.6353 80.9865 74.7521 81.6216L72.4478 81.9923L72.3997 79.6571C72.3833 79.05 72.3109 78.4458 72.1834 77.852L72.1353 77.6259C71.4582 74.589 69.4356 71.3878 66.1566 68.1346C65.2375 71.3768 63.6776 74.4016 61.5691 77.0304C61.5234 77.8792 61.4715 78.7465 61.4097 79.6435C61.1626 82.8645 60.8438 86.1251 60.4633 89.3522L60.362 90.2085L59.8814 90.5729C59.9543 90.5729 60.0247 90.5791 60.0988 90.5791C68.5992 90.5655 75.6985 86.6415 81.7847 78.5835L82.0441 78.2276C82.2394 77.9607 82.4333 77.6951 82.6211 77.4258L82.6817 77.3393C88.218 69.4715 91.0338 59.9184 91.0474 48.9223C91.0289 38.1757 88.3305 28.7821 83.0289 21.0168Z" fill="white"/>
<path d="M85.6624 14.7194C82.4129 10.3539 78.8464 7.0139 74.9627 4.69935C70.6104 2.09982 65.8594 0.800049 60.7098 0.800049C56.1161 0.800049 51.8392 1.83294 47.8789 3.89874C46.9115 3.48978 45.9441 3.11294 44.9927 2.79542C41.7285 1.70733 38.5042 1.16329 35.3198 1.16329C29.517 1.16329 24.2224 2.80036 19.436 6.07449C16.1717 8.29843 13.1439 11.2859 10.3524 15.037C3.44587 24.2712 -0.00493678 35.435 5.30077e-06 48.5282C5.30077e-06 61.6 3.45081 72.7638 10.3524 82.0195C13.1793 85.8126 16.2422 88.819 19.541 91.0388C24.3052 94.2602 29.5648 95.8783 35.3198 95.8932C36.1847 95.8783 37.0421 95.8475 37.9045 95.7696C41.4354 95.4664 44.8739 94.4812 48.0296 92.8686C48.257 92.9922 48.4991 93.1095 48.7401 93.2306C52.4792 95.006 56.5706 95.9152 60.7098 95.8907C66.9697 95.8759 72.6424 93.9567 77.7278 90.1332L84.3329 78.5143C84.0302 78.9529 83.7152 79.3792 83.3952 79.8141C76.9573 88.3376 69.1842 92.6042 60.076 92.6141C58.2697 92.6081 56.4681 92.4311 54.6953 92.0853C50.9628 91.3292 47.4712 89.7576 44.2514 87.3841C41.5761 85.4197 39.0725 82.8959 36.7407 79.8129C36.2465 79.1482 35.7584 78.4674 35.2902 77.7878C35.0937 77.4851 34.8973 77.1824 34.7008 76.8958C34.2313 76.1545 33.7779 75.3996 33.3554 74.6434C29.531 67.8728 27.4553 60.15 27.1283 51.4749C27.0987 50.6439 27.0834 49.7975 27.0826 48.936C27.0826 47.9994 27.0987 47.0765 27.1432 46.1709C27.4603 38.3871 29.1933 31.3693 32.3422 25.1176C32.6906 24.422 33.0527 23.7424 33.4455 23.0617C33.733 22.5329 34.0353 22.0193 34.3524 21.521C34.7762 20.8402 35.2173 20.1619 35.6831 19.4947C36.0303 19.0005 36.3774 18.5285 36.7407 18.059C38.0172 16.3442 39.4326 14.7371 40.9723 13.2541C44.5842 9.76252 48.5588 7.41956 52.8963 6.22522C53.7065 5.99313 54.529 5.80668 55.36 5.66677C56.0099 5.56051 56.6597 5.47032 57.3245 5.39495C58.2384 5.29977 59.1572 5.25851 60.076 5.2714C69.1892 5.25575 76.9631 9.5183 83.3977 18.059C83.8363 18.6484 84.2749 19.2538 84.6974 19.8728C90.2746 28.0346 93.0656 37.7224 93.0705 48.936C93.0557 60.3769 90.144 70.2359 84.3354 78.5131L77.7303 90.1356C80.556 88.0044 83.2012 85.2689 85.6648 81.959C92.5549 72.6786 96 61.4744 96 48.3466C96 35.2188 92.5541 24.0097 85.6624 14.7194ZM45.6723 5.16762C45.5935 5.2131 45.518 5.26388 45.4462 5.31959C45.3852 5.34527 45.3289 5.38074 45.2794 5.4246C44.7209 5.78785 44.176 6.18074 43.6472 6.58847C40.8212 8.7045 38.1854 11.4148 35.7399 14.7194C28.8482 23.9998 25.4073 35.2089 25.4171 48.3466C25.4023 61.4802 28.8432 72.6843 35.7399 81.959C38.6228 85.8583 41.7713 88.9413 45.1855 91.2081C45.7143 91.5553 46.2431 91.8728 46.7719 92.1965L46.8633 92.2422C46.8324 92.257 46.8028 92.257 46.7867 92.2719C43.6435 93.4666 40.3039 94.056 36.779 94.0708C33.0304 94.0708 29.4989 93.3908 26.1844 92.0309C23.9805 91.1312 21.8984 89.9582 19.987 88.5394C17.2071 86.4995 14.6076 83.8839 12.1897 80.7259C5.40335 71.8236 2.01267 61.0745 2.01761 48.4788C2.00773 35.8847 5.40088 25.1353 12.1971 16.2305C16.0807 11.1377 20.4281 7.50069 25.2392 5.31959C28.8214 3.7027 32.6705 2.89137 36.7864 2.88561C38.3499 2.8838 39.911 3.00526 41.4554 3.24885C43.2088 3.53161 44.93 3.98684 46.594 4.60793C46.2764 4.77472 45.975 4.97117 45.6723 5.16762Z" fill="white"/>
</svg>
