<svg width="100" height="79" viewBox="0 0 100 79" fill="none" xmlns="http://www.w3.org/2000/svg">
<path d="M41.0978 0.470093C42.7653 1.58172 44.7379 3.85948 45.7078 5.79939C46.5252 7.43414 47.1464 9.96256 47.1464 11.63C47.1464 11.9788 47.19 12.055 47.4734 12.1749C47.6586 12.2512 47.833 12.4147 47.8548 12.5455C47.8875 12.6653 47.8984 14.6815 47.8875 17.0247L47.8548 21.275L47.5061 21.493L47.1573 21.711L47.1464 23.4547V25.1985L48.9664 25.1767C49.98 25.1549 51.2987 25.1222 51.909 25.0786L53.0315 25.0132V21.0353C53.0315 16.5452 53.0533 16.3599 53.8053 15.2265C54.3393 14.4309 54.8297 14.0167 55.7234 13.5808C56.4972 13.2103 57.1184 13.1231 60.3879 12.8833C63.4394 12.6545 67.8533 12.3057 69.2701 12.1749C69.9022 12.1204 71.1228 12.0332 71.9946 12.0005C73.9019 11.9134 74.8173 12.0768 76.1142 12.7198C76.9098 13.1231 77.2368 13.4391 82.6314 18.8447C88.8544 25.0895 88.8871 25.1222 89.323 26.8332C89.5301 27.6506 89.541 28.0429 89.541 37.6226V47.5728L88.0697 48.4119L86.5984 49.2511V50.3301C86.5984 50.9186 86.5875 51.409 86.5657 51.409C86.544 51.409 85.0836 50.9186 83.318 50.3083C81.5525 49.7088 79.0786 48.8588 77.8253 48.4337L75.5366 47.66H74.1743C73.0845 47.66 72.6377 47.7035 71.962 47.8997C71.1991 48.1177 70.883 48.1395 68.4309 48.1395C66.7634 48.1395 65.7826 48.1831 65.848 48.2376C65.9025 48.2921 66.7307 48.4446 67.6898 48.5754C68.6489 48.6953 69.4989 48.8152 69.5861 48.8261C69.6733 48.837 69.379 49.1094 68.954 49.4364L68.1584 50.0249L67.2321 50.0031L66.3166 49.9813L66.3493 50.2756C66.382 50.5371 66.4474 50.5916 66.8942 50.7006L67.4173 50.8096L67.025 51.3C66.6545 51.7577 66.6436 51.8231 66.7089 52.3354C66.7961 53.0001 66.8288 53.0437 67.0577 52.7059C67.45 52.1174 69.0521 50.657 69.8259 50.1775C71.6241 49.0658 73.5531 48.6844 75.5039 49.0549C76.027 49.153 78.4465 50.0467 82.3045 51.5725C85.5958 52.8803 89.3448 54.3515 90.6308 54.8638C97.5295 57.5775 98.5539 57.9916 98.7828 58.1987C99.1098 58.5038 99.6329 59.5828 99.8399 60.4001C100.025 61.1412 100.058 62.5471 99.8944 63.4081C99.6438 64.7377 98.5539 66.3506 97.5404 66.8629C97.1154 67.0808 96.3198 67.2988 91.6117 68.5194C88.5383 69.3041 84.0482 70.4702 82.1846 70.9606C81.3999 71.1677 79.9831 71.5382 79.0241 71.7889C78.065 72.0396 76.6156 72.4101 75.8091 72.6281C73.6948 73.1839 72.8011 73.173 70.1964 72.5736C69.1175 72.312 67.4718 71.9524 66.5455 71.7453L64.8562 71.3857L65.4556 71.3203C65.7826 71.2767 66.5564 71.244 67.1667 71.244C67.7879 71.244 68.2892 71.2222 68.2892 71.1895C68.2892 71.1677 68.0494 70.8952 67.7443 70.601C67.2212 70.0779 67.1885 70.067 65.8698 69.7836C65.1287 69.6201 64.4748 69.4676 64.3985 69.4458C64.3222 69.424 64.0171 69.8926 63.6792 70.5247C62.5022 72.7371 60.8674 75.1783 59.6141 76.5624L59.1891 77.0419L56.192 77.7176L53.195 78.3933L50.7429 78.0446C49.3915 77.8484 46.6451 77.467 44.6398 77.1836C42.6345 76.9111 39.9862 76.5406 38.7547 76.3662C37.5232 76.1918 34.2101 75.7232 31.3983 75.3309C25.2952 74.4808 22.3635 74.0667 19.3556 73.6416C18.1241 73.4673 14.811 72.9986 11.9992 72.6063C3.26964 71.3857 0.0328281 70.9279 0.000133038 70.8952C-0.0107653 70.8734 0.632235 70.0016 1.44961 68.9553C3.21514 66.6667 4.53384 64.6941 5.40571 63.0375C7.36742 59.2994 8.46815 55.692 8.90409 51.518C9.04577 50.1448 8.96947 45.6656 8.7842 44.6629C8.72971 44.336 8.69701 44.0526 8.70791 44.0417C8.71881 44.0308 9.71056 44.0635 10.9094 44.118C13.95 44.2488 17.7971 44.4122 20.9032 44.543C22.3636 44.6084 24.5432 44.7065 25.7638 44.761L27.9762 44.87L29.8725 43.4968L31.7688 42.1236L31.8015 35.1377L31.8342 28.141L32.1176 27.5416C32.4772 26.7896 33.0657 26.212 33.8286 25.8306C34.428 25.5363 34.4389 25.5363 37.9264 25.4491C45.9149 25.2311 46.6015 25.1985 46.0239 25.0459L45.5117 24.9042V23.2803C45.5117 22.1796 45.4681 21.6565 45.3918 21.6565C45.3264 21.6565 45.1302 21.5584 44.9558 21.4276L44.6398 21.1988L44.6616 16.8394L44.6943 12.4692L44.9667 12.273C45.1193 12.1531 45.5334 12.0223 45.8931 11.9678L46.547 11.8698L45.8386 11.8589L45.1193 11.848L44.9776 11.4338C44.2147 9.29775 42.9287 7.73929 40.7927 6.3552C39.1579 5.29806 39.0271 5.0692 39.0271 3.33636V2.18113L39.572 1.1022C39.8663 0.513685 40.1715 0.0123556 40.2259 0.00145721C40.2913 -0.0203395 40.6837 0.197634 41.0978 0.470093ZM64.9107 14.845C56.2683 15.3681 56.7152 15.3245 56.2356 15.597C56.0068 15.7278 55.7016 16.022 55.5708 16.2618C55.3311 16.6759 55.3202 16.8176 55.3202 18.9973C55.3202 20.2615 55.3529 22.1142 55.3965 23.1169L55.4618 24.9369L56.2901 24.9042C56.9658 24.8824 57.1075 24.8388 57.0748 24.708C57.0421 24.6208 57.0094 24.1631 56.9767 23.6945C56.9331 22.9534 56.9658 22.779 57.2165 22.2668C57.7069 21.2532 58.5788 20.7628 59.843 20.7737C62.1098 20.7846 64.1478 22.6591 64.3331 24.9151L64.3985 25.6562L65.0633 25.8197C65.4229 25.9177 67.4064 26.4191 69.4662 26.9422C71.526 27.4653 73.2262 27.8794 73.248 27.8577C73.3025 27.7923 73.0954 16.2182 73.0191 15.8041C72.921 15.1393 72.1363 14.4745 71.4497 14.4636C71.2972 14.4636 68.3546 14.6379 64.9107 14.845ZM59.3199 22.136C58.4807 22.4957 58.0448 23.4111 58.2736 24.3266L58.4044 24.8279L59.6686 24.8061C60.6604 24.7843 61.1399 24.8388 61.8919 25.0132C62.4259 25.144 62.9054 25.2529 62.9599 25.2529C63.167 25.2529 63.058 24.3048 62.7746 23.749C62.1098 22.4085 60.4751 21.6456 59.3199 22.136ZM82.1737 22.6482C81.9775 22.8662 81.9666 23.1496 81.9666 30.1463V37.4046L82.2718 38.0258C82.4462 38.3746 82.7077 38.756 82.8603 38.8759C83.22 39.1592 83.7213 39.1592 83.8739 38.8868C83.9392 38.7451 83.9828 36.2058 83.9828 31.3887V24.1086L83.7213 23.5637C83.4488 22.9752 82.893 22.4194 82.5769 22.4194C82.468 22.4194 82.2936 22.5175 82.1737 22.6482ZM85.3778 26.1466C85.2688 26.3428 85.2361 27.9557 85.2361 33.5902V40.7831L85.5413 41.4043C85.8683 42.0582 86.3805 42.5813 86.6965 42.5813C86.8055 42.5813 86.9799 42.4832 87.0998 42.3525C87.2959 42.1345 87.3068 41.8511 87.3068 34.8544V27.5961L87.0562 27.0512C86.6965 26.2774 86.3151 25.9068 85.8683 25.9068C85.6176 25.9068 85.4759 25.9722 85.3778 26.1466ZM35.2345 28.1955C35.0165 28.3372 34.7441 28.6423 34.6242 28.8603C34.4062 29.2526 34.3953 29.4161 34.3953 35.116V40.9793L34.6787 41.4697C34.8749 41.7966 35.1037 42.0146 35.4089 42.1563C35.8448 42.3525 36.2698 42.3634 44.4436 42.3634C50.2306 42.3634 53.1187 42.3307 53.3258 42.2435C53.7835 42.08 54.3284 41.5024 54.4483 41.0556C54.5682 40.6196 54.6009 39.2028 54.481 39.2028C54.4374 39.2028 54.1649 39.4099 53.8707 39.6497L53.3367 40.1074L52.1814 39.9875C51.5384 39.9112 48.3452 39.5407 45.0757 39.1483C41.8062 38.756 38.6457 38.3855 38.0463 38.3201C37.4469 38.2547 36.9346 38.1675 36.902 38.1457C36.8693 38.113 38.6348 38.113 40.8254 38.1566C43.0159 38.1893 46.9829 38.222 49.653 38.222L54.5028 38.2329L54.5355 36.7507C54.5464 35.8788 54.5246 35.2794 54.4592 35.2794C54.4047 35.2794 54.3393 35.3121 54.3175 35.3666C54.2957 35.4102 54.056 35.6282 53.7835 35.8461L53.2931 36.2494L49.6966 35.8243C47.724 35.5955 45.2501 35.3012 44.2039 35.1704C43.1576 35.0397 41.6536 34.8653 40.8799 34.7781C36.7385 34.2877 36.5314 34.2986 45.8604 34.364L54.5573 34.4076V32.9363C54.5573 32.1298 54.5246 31.465 54.481 31.465C54.4374 31.465 54.1649 31.6721 53.8707 31.9227L53.3258 32.3805L51.2987 32.1407C46.329 31.5631 43.8115 31.2579 40.9888 30.9201C40.5093 30.8656 39.4522 30.7348 38.6457 30.6367C37.8392 30.5495 37.1199 30.4515 37.0654 30.4188C37 30.397 39.0162 30.397 41.5338 30.4297C44.0513 30.4624 47.9965 30.4842 50.3069 30.4951C55.0477 30.4951 54.6336 30.5931 54.5028 29.5578C54.4483 29.1328 54.3502 28.8821 54.0887 28.5769C53.4457 27.8468 53.8053 27.8685 44.2474 27.9012L35.6377 27.923L35.2345 28.1955ZM61.881 28.6532C61.9137 29.3071 61.9246 29.3289 62.2406 29.4052C62.6112 29.4815 72.812 31.999 73.1063 32.0753C73.2698 32.1298 73.3025 32.0535 73.3025 31.6394V31.149L72.7248 30.9964C72.4197 30.9092 69.9022 30.2008 67.1449 29.4161C64.3876 28.6423 62.0663 27.9993 61.99 27.9884C61.881 27.9775 61.8592 28.1519 61.881 28.6532ZM61.8592 31.4541C61.8592 32.0971 61.8592 32.0971 62.2079 32.1734C62.4041 32.2061 63.4612 32.435 64.5511 32.6747C65.6409 32.9036 66.9923 33.1978 67.5481 33.3177C68.1039 33.4267 69.5861 33.7428 70.8394 34.0261C72.1036 34.2986 73.1608 34.5165 73.2153 34.5165C73.2589 34.5165 73.3025 34.3095 73.3025 34.0479V33.5902L67.8206 32.2061C64.8126 31.4541 62.2406 30.8329 62.0989 30.822C61.881 30.8111 61.8592 30.8547 61.8592 31.4541ZM61.881 34.2114L61.9137 34.8871L62.6766 35.0288C63.0907 35.0942 65.5755 35.5519 68.202 36.0314C70.8176 36.5218 73.0409 36.9142 73.139 36.9142C73.2807 36.9142 73.3134 36.827 73.2807 36.4565L73.248 35.9987L70.0874 35.3121C68.3437 34.9307 65.848 34.3858 64.5293 34.0915C63.2106 33.7973 62.0663 33.5466 61.99 33.5466C61.881 33.5357 61.8592 33.7101 61.881 34.2114ZM61.8592 37.0232C61.8592 37.3828 61.8919 37.6771 61.9355 37.6771C62.0336 37.6771 72.5505 39.2791 72.9973 39.3554C73.2916 39.4099 73.3025 39.399 73.3025 38.9304C73.3025 38.3746 73.4332 38.4399 71.6132 38.113C70.8939 37.9822 68.5399 37.5463 66.382 37.1321C64.2241 36.718 62.3278 36.3802 62.1534 36.3802C61.8592 36.3693 61.8592 36.3802 61.8592 37.0232ZM61.881 39.7696L61.9137 40.4561L62.6221 40.5433C63.483 40.6414 66.8615 41.0447 70.4907 41.4915C71.962 41.6659 73.2044 41.8184 73.2371 41.8184C73.2698 41.8184 73.3025 41.6005 73.3025 41.328C73.3025 41.0556 73.2698 40.8376 73.2371 40.8376C73.1826 40.8376 70.8503 40.4779 68.5072 40.1183C67.9405 40.0311 66.9814 39.8785 66.382 39.7913C65.7826 39.6933 64.5838 39.508 63.7119 39.3663C62.84 39.2246 62.0663 39.1156 61.99 39.1047C61.881 39.0938 61.8592 39.2682 61.881 39.7696ZM10.7568 48.8152C10.7459 55.7356 8.46815 62.4926 4.26139 68.1489C3.73827 68.8464 3.34592 69.4349 3.36772 69.4567C3.43311 69.5221 4.8281 69.7182 10.201 70.4266C10.8876 70.5138 14.9636 71.0478 19.2466 71.6254C23.5297 72.1921 27.8018 72.7589 28.7282 72.8787C29.6545 73.0095 31.322 73.2275 32.4336 73.3801C33.5453 73.5217 35.1582 73.7397 36.0301 73.8596C36.902 73.9686 38.5694 74.1974 39.7355 74.35C40.9016 74.5026 42.5691 74.7315 43.441 74.8404C44.3128 74.9603 45.7841 75.1565 46.7105 75.2764C47.6368 75.4072 49.4242 75.636 50.6666 75.8104L52.9443 76.1047L53.6309 75.2328C54.5137 74.0885 55.2439 72.9877 55.1676 72.9114C55.1349 72.8678 54.797 72.8025 54.4265 72.748C52.8244 72.53 50.5249 72.2139 49.8165 72.1159C49.3915 72.0614 47.408 71.7889 45.4027 71.5164C43.3974 71.244 41.403 70.9715 40.9888 70.917C40.5638 70.8625 39.4849 70.71 38.5912 70.5901C37.6866 70.4702 35.7031 70.1977 34.1774 69.9907C32.6516 69.7836 30.6572 69.5112 29.7635 69.3913C28.2487 69.1842 20.282 68.0944 18.5382 67.8655C18.1132 67.811 17.3285 67.702 16.7945 67.6366C16.2496 67.5712 15.7918 67.495 15.77 67.4732C15.6938 67.3969 16.5111 67.4296 17.5356 67.5386C18.4728 67.6366 19.7588 67.7456 26.2761 68.3014C27.7146 68.4213 30.0469 68.6175 31.4528 68.7374C32.8587 68.8573 34.5479 69.0098 35.2127 69.0643C35.8666 69.1188 37 69.2169 37.7193 69.2714C38.4386 69.3368 39.6156 69.4349 40.3349 69.5003C41.0542 69.5656 43.0922 69.74 44.8578 69.8817C49.3261 70.2631 50.2306 70.3394 53.086 70.5792C54.4592 70.6991 55.7888 70.8081 56.0286 70.8299C56.4536 70.8625 56.4536 70.8625 56.8132 70.1542C59.3635 65.0973 60.7149 58.918 60.3443 54.0355C60.2135 52.3462 60.1263 51.7468 59.8321 50.341C59.6795 49.6762 59.625 49.5563 59.4288 49.5563C59.309 49.5563 58.5352 49.5127 57.7287 49.4473C56.9113 49.3928 55.3093 49.2947 54.1758 49.2293C53.0315 49.1639 51.3968 49.0658 50.5249 49.0114C49.653 48.9569 48.0837 48.8588 47.0374 48.7934C45.9912 48.7389 43.8878 48.6081 42.362 48.5209C40.8472 48.4228 39.5829 48.3575 39.572 48.3792C39.5503 48.401 39.4849 48.8261 39.4086 49.3383C39.1906 51.0711 38.7765 52.477 38.1008 53.8611C37.4905 55.1253 36.3461 56.771 35.6486 57.4031L35.3435 57.6755L35.6377 57.1851C36.9564 54.9945 37.9155 52.1065 38.2098 49.4691C38.2751 48.8479 38.3187 48.3248 38.2969 48.303C38.2751 48.2921 37.2616 48.2158 36.0301 48.1504C34.7986 48.085 33.4472 47.9978 33.0221 47.9542L32.2484 47.8997L32.183 48.9133C31.9759 52.0084 30.7989 54.7221 28.6301 57.1415C28.0634 57.7736 28.0634 57.7845 28.859 56.3132C30.1341 53.9374 31.0168 50.7442 31.0168 48.4882C31.0168 47.8234 31.0168 47.8125 30.7117 47.8125C30.4174 47.8125 28.4666 47.7035 24.9683 47.4856C23.9438 47.4202 22.2764 47.3221 21.2628 47.2676C20.2384 47.2131 19.0178 47.1368 18.5491 47.0932L17.6882 47.0279L17.7535 47.4965C17.8407 48.1613 17.6555 51.6705 17.4375 53.1636C16.74 58.2641 14.811 62.3836 11.3453 66.209C10.8004 66.8084 10.3536 67.277 10.3318 67.2661C10.31 67.2443 10.4843 66.9282 10.7241 66.5468C13.2416 62.3945 14.92 57.3813 15.4322 52.3898C15.5412 51.2455 15.5957 47.0714 15.4976 46.9625C15.4649 46.9298 14.4731 46.8535 13.2852 46.7772C12.0973 46.7009 11.0402 46.6355 10.9421 46.6246C10.7786 46.6137 10.7568 46.8208 10.7568 48.8152ZM73.3678 54.3951C72.5832 54.7766 71.4279 55.8991 70.9157 56.771C69.9785 58.3839 69.5425 60.1604 69.6297 62.0894C69.6951 63.5716 69.9022 64.4325 70.4798 65.664C71.0029 66.743 71.853 67.6475 72.7466 68.0726C73.2698 68.3123 73.4986 68.3559 74.3378 68.345C75.0571 68.345 75.4385 68.2905 75.7546 68.138L76.1905 67.9418L75.7001 67.8437C74.1089 67.5603 72.8665 66.2416 72.3107 64.2364C71.9402 62.9176 71.9729 60.9995 72.3761 59.6372C72.7793 58.2858 73.2371 57.4685 74.0653 56.6293C75.3186 55.376 76.572 55.049 78.0432 55.6049C78.3593 55.7356 77.7381 55.0708 77.1387 54.6567C76.3976 54.1445 75.9617 54.0246 74.9372 54.0573C74.1634 54.0791 73.9019 54.1336 73.3678 54.3951ZM85.8029 57.1524C82.6859 58.8526 82.3154 65.0319 85.2252 66.8193C85.8683 67.2225 86.9581 67.3315 87.5793 67.0699L87.9607 66.9064L87.6338 66.8302C86.0099 66.4705 84.9637 64.814 84.9637 62.5907C84.9637 61.806 85.2797 60.4655 85.6176 59.7898C85.9336 59.1795 86.7619 58.3076 87.3068 58.0243C87.7646 57.7954 88.5819 57.7191 89.1596 57.8717L89.4865 57.948L89.1051 57.6102C88.0697 56.7056 86.9254 56.5421 85.8029 57.1524ZM75.9616 59.3212C75.1661 59.7026 74.6429 60.9124 74.7519 62.1003C74.8827 63.5171 75.9181 64.3998 76.8771 63.8985C78.2176 63.201 78.5882 60.7489 77.5201 59.6046C77.0733 59.125 76.572 59.0378 75.9616 59.3212ZM95.6877 59.5719C95.0774 59.8552 94.4997 60.5745 94.2164 61.4028C93.8785 62.4163 93.9439 63.7568 94.369 64.6287C94.8485 65.5986 95.7858 66.1 96.5704 65.7948L96.8974 65.664L96.4832 65.5224C95.9601 65.348 95.6877 65.0973 95.3934 64.5415C95.1972 64.1819 95.1536 63.9203 95.1536 63.0157C95.1536 62.0349 95.1863 61.8605 95.4588 61.2938C95.8838 60.4328 96.3743 60.0732 97.1371 60.0732C97.8237 60.0732 97.8346 59.9533 97.1698 59.6046C96.5922 59.3103 96.2762 59.3103 95.6877 59.5719ZM87.4376 60.9995C86.8709 61.6643 86.7619 62.5362 87.1325 63.3645C87.503 64.1601 88.2441 64.3017 88.8217 63.6805C89.5628 62.8959 89.6173 61.5881 88.9416 60.8579C88.7236 60.6399 88.5601 60.5636 88.2332 60.5636C87.8735 60.5636 87.7537 60.629 87.4376 60.9995ZM96.5268 62.0458C96.189 62.4708 96.2108 63.3209 96.5704 63.6696C96.7121 63.8222 96.8974 63.9421 96.9737 63.9421C97.4532 63.9421 97.9109 63.1247 97.7802 62.4926C97.6276 61.7515 96.9519 61.5118 96.5268 62.0458ZM64.8671 67.9091C64.6492 68.454 64.4748 68.9008 64.4748 68.9226C64.4748 68.9444 64.8889 68.9553 65.4011 68.9553C65.9134 68.9553 66.3275 68.9335 66.3275 68.9117C66.3275 68.8899 66.1531 68.5848 65.9461 68.236C65.739 67.8873 65.4992 67.4405 65.4338 67.2443C65.3576 67.0481 65.2922 66.9064 65.2813 66.9173C65.2704 66.9282 65.0851 67.3751 64.8671 67.9091Z" fill="white"/>
</svg>
