<svg width="96" height="75" viewBox="0 0 96 75" fill="none" xmlns="http://www.w3.org/2000/svg">
<path d="M64.7113 0.626404C64.052 0.945435 63.9775 1.14749 63.9137 2.5938L63.8605 3.86994L61.9463 3.83804C56.5227 3.73169 49.8442 4.60372 45.9413 5.91177C45.367 6.1032 45.3564 6.11383 45.2182 6.63493C45.1543 6.92206 45.0374 7.6133 44.9629 8.14503C44.8885 8.80437 44.8034 9.13405 44.7077 9.13405C44.6332 9.13405 44.5482 9.32547 44.5056 9.55943C44.4206 10.0593 44.4844 10.038 42.6446 10.1975C40.3263 10.3996 40.305 10.3996 40.305 10.6867C40.305 10.8887 40.2518 10.9419 40.0498 10.9419C39.7201 10.9419 39.6988 11.1121 39.5712 13.6963C39.4755 15.9295 39.4861 16.0252 39.9221 16.1316C40.1774 16.206 40.2412 16.2698 40.2199 16.4506C40.1986 16.6314 40.2624 16.6952 40.5921 16.7803C42.3149 17.2269 43.1231 17.4396 43.1657 17.4822C43.1976 17.5247 42.5489 21.7998 42.3787 22.5974C42.3256 22.8207 42.2617 22.8314 40.1774 22.8952C38.9863 22.9271 36.4127 22.9802 34.456 23.0121C26.8416 23.1398 18.6956 23.4056 18.1107 23.5545C17.9299 23.6077 17.781 23.8629 17.43 24.7456C16.2283 27.8083 16.1539 28.0848 15.8987 30.2968L15.6647 32.3706L16.239 35.0611C16.558 36.5499 16.8026 37.7729 16.7813 37.7836C16.7601 37.8048 16.4304 37.7942 16.0263 37.7623C15.4201 37.7197 15.3138 37.6878 15.3138 37.5177C15.3138 37.3369 15.2287 37.3156 14.3673 37.3156C13.1443 37.3156 12.7615 37.3901 12.7615 37.6453C12.7615 37.7836 12.6232 37.858 12.1553 37.9537C11.1663 38.1558 9.89014 38.5918 9.12445 38.9746L8.4013 39.3362V39.9211C8.4013 40.4316 8.38003 40.506 8.18861 40.506C8.00782 40.506 7.97592 40.4316 7.97592 40.0487C7.97592 39.8041 7.90148 39.517 7.8164 39.4106C7.67815 39.2192 7.62498 39.2405 6.89119 39.7509C5.67885 40.5804 5.59378 40.6655 5.67885 40.8888C5.73203 41.0377 5.64695 41.176 5.32791 41.4631L4.90253 41.8353L5.12586 43.4092C5.33855 44.8449 5.32791 45.3341 5.11522 44.9938C5.07269 44.9193 4.96634 44.3663 4.8919 43.7814C4.66857 42.0374 4.71111 42.0799 4.10494 42.7499C3.82844 43.0583 3.34989 43.6857 3.05212 44.143C2.62674 44.7811 2.45658 44.9619 2.3077 44.9087C2.15882 44.8662 2.02057 45.0576 1.58455 45.9828C1.08473 47.025 1.05282 47.1207 1.22297 47.2483C1.39313 47.3759 1.39313 47.4078 1.22297 47.9076C0.97838 48.6095 0.531728 50.5876 0.531728 50.9491C0.531728 51.1725 0.478555 51.2469 0.329671 51.2469C0.0850765 51.2469 0 51.6723 0 52.9165C0 53.7141 0.0212691 53.7992 0.202057 53.7992C0.37221 53.7992 0.414748 53.9162 0.478555 54.5223C0.574266 55.5114 0.925207 57.1065 1.24424 58.0317C1.48884 58.7443 1.48884 58.8293 1.32932 58.9357C1.18044 59.0527 1.22297 59.1803 1.7228 60.1799C2.16945 61.0626 2.3396 61.2966 2.50976 61.2966C2.66927 61.2966 2.93514 61.5518 3.37116 62.1473C4.0305 63.03 4.96634 64.0403 5.66822 64.6252C5.96599 64.8804 6.0617 65.0293 6.00853 65.1782C5.95535 65.3377 6.07233 65.4653 6.56152 65.795C7.67815 66.5394 8.08227 66.7308 8.18861 66.5607C8.26305 66.4331 8.44384 66.4756 9.22016 66.7946C10.3155 67.2413 11.6236 67.6029 12.5488 67.6986C13.0592 67.7517 13.1869 67.7943 13.1869 67.9538C13.1869 68.209 13.8143 68.3047 14.9416 68.209C15.7072 68.1452 15.8455 68.1027 15.8455 67.9432C15.8455 67.7943 15.9625 67.7411 16.356 67.6879C17.2705 67.5497 18.7594 67.1137 19.7377 66.6883C20.5566 66.3373 20.7161 66.2948 20.8012 66.4331C20.8863 66.5607 21.0245 66.5075 21.6413 66.1353C22.7792 65.444 23.0983 65.1675 22.9706 65.0187C22.8962 64.9336 23.2152 64.5401 24.1192 63.6255C24.7998 62.9343 25.5548 62.0622 25.7888 61.7007C26.1291 61.1796 26.2567 61.0626 26.4375 61.0945C26.6183 61.137 26.7246 61.0307 27.0224 60.4777C27.2138 60.1055 27.4797 59.595 27.586 59.3398C27.7775 58.9251 27.7775 58.8719 27.6286 58.7868C27.4797 58.7017 27.4903 58.606 27.7456 57.9254C27.937 57.4256 28.0859 57.1597 28.1922 57.1704C28.2773 57.181 29.2557 57.3405 30.3617 57.5319C31.8611 57.7765 32.4354 57.9254 32.5949 58.0743C32.7119 58.1806 33.1905 58.5741 33.6584 58.9357C34.6793 59.7333 35.7215 60.9456 36.1788 61.8602C36.3596 62.2218 36.4872 62.5408 36.4659 62.5621C36.3808 62.6471 35.2536 61.8177 34.4666 61.0732C34.02 60.6585 33.4351 60.0098 33.1798 59.6482C32.7225 59.0314 32.7013 59.0101 32.6694 59.2973C32.6587 59.4568 32.7544 60.1374 32.8927 60.7967L33.1373 61.9984L32.8927 62.0516C32.7544 62.0942 32.6481 62.1367 32.6481 62.158C32.6481 62.243 33.2011 63.9233 33.3393 64.2636C33.4776 64.6039 33.5308 64.6358 33.7116 64.5401C33.903 64.4444 33.9668 64.5188 34.4028 65.4015C34.8601 66.3054 34.8814 66.3799 34.7218 66.5607C34.5623 66.7415 34.5836 66.784 35.1472 67.2625C35.4769 67.5497 35.9342 68.0282 36.1575 68.3366C36.5191 68.8046 36.551 68.9003 36.4234 69.0066C36.3383 69.0811 36.2639 69.1874 36.2639 69.2406C36.2639 69.3044 36.6361 69.7298 37.0827 70.1871C37.8271 70.9634 38.1781 71.1867 38.1781 70.9208C38.1781 70.7081 38.4546 70.8358 39.1245 71.3356C39.9009 71.9311 41.0813 72.6224 41.8789 72.9627L42.4319 73.1966L42.8998 72.7074C43.4315 72.1438 43.9633 71.7929 44.6652 71.5164C45.2288 71.293 46.1434 71.1335 46.2072 71.2399C46.2922 71.3888 45.3139 72.197 44.059 73.0158C42.6446 73.9304 42.6446 73.8985 44.1441 74.2282C45.1331 74.4409 45.2926 74.4196 45.3032 74.058C45.3032 73.9942 45.8881 73.9517 46.824 73.9517C48.1639 73.9411 49.589 73.7603 50.2377 73.5157C50.3334 73.4838 50.4184 73.5476 50.461 73.6858C50.5567 73.9836 50.7694 73.9411 52.0349 73.4093C52.9495 73.0265 52.9707 73.0158 52.9069 72.7181C52.8644 72.5479 52.8857 72.4097 52.9388 72.4097C53.1622 72.4097 55.3103 70.8783 56.076 70.1764C56.863 69.4533 56.9162 69.4214 57.097 69.5809C57.2777 69.751 57.3203 69.7298 57.8201 69.1449C58.1072 68.8046 58.4794 68.3473 58.6496 68.1239C58.9261 67.7517 58.9367 67.7198 58.7559 67.5816C58.5858 67.454 58.6177 67.3583 59.277 66.2842C59.6599 65.6461 60.1916 64.6464 60.4575 64.0615C60.8829 63.1151 60.9679 62.9981 61.2019 63.0194C61.4465 63.0406 61.489 62.9556 61.84 61.8815C62.042 61.2328 62.2122 60.6691 62.2122 60.6159C62.2122 60.5628 62.1058 60.499 61.9888 60.4671C61.7868 60.4139 61.7655 60.3501 61.8187 60.0523C61.8506 59.8609 61.9569 59.2654 62.0633 58.7443C62.159 58.2125 62.2654 57.2342 62.3079 56.5642C62.3717 55.405 62.3823 55.3412 62.6163 55.3093C62.7439 55.288 62.8503 55.203 62.8503 55.1285C62.8503 55.0328 63.0204 54.9584 63.3075 54.9158C64.0732 54.8201 71.4323 54.1182 71.762 54.1182C72.0491 54.1182 72.081 54.1608 72.1768 54.6393C72.2725 55.1391 72.2725 55.1711 72.0279 55.2349C71.7407 55.2987 71.7407 55.2987 72.2087 56.7769C72.4639 57.617 72.5064 57.6808 72.7617 57.6595C72.9956 57.6489 73.0594 57.7127 73.2189 58.1381C73.5167 58.9144 74.3781 60.584 74.9098 61.4029C75.3459 62.0942 75.3778 62.158 75.2182 62.3281C75.0162 62.5514 75.0268 62.5621 76.1328 63.7106C76.7709 64.3699 76.8347 64.4125 77.0049 64.2636C77.175 64.1147 77.2601 64.1466 78.0364 64.689C79.0254 65.3909 80.0995 65.8694 81.0779 66.0502C81.6947 66.1672 81.7798 66.2097 81.7798 66.4224C81.7798 66.7415 82.1201 66.8159 83.141 66.7308C84.3321 66.6245 84.4703 66.5819 84.4171 66.2948C84.3746 66.0821 84.4384 66.0289 84.9595 65.8694C85.8953 65.5823 87.3097 64.806 88.0967 64.1573C88.7667 63.6043 88.8305 63.5724 89.0006 63.7425C89.1814 63.902 89.2452 63.8595 90.0641 62.9875C90.532 62.477 90.9255 62.0197 90.9255 61.9665C90.9255 61.9134 90.851 61.8496 90.766 61.8177C90.6809 61.7751 90.6065 61.7113 90.6065 61.6581C90.6065 61.6156 90.8829 61.1477 91.2233 60.6266C91.5529 60.1055 92.0953 59.1271 92.4143 58.4359C92.9673 57.2661 93.0099 57.2023 93.2757 57.2448C93.5416 57.298 93.5735 57.2554 93.9457 56.1601C94.1584 55.5326 94.3285 54.9584 94.3285 54.8839C94.3285 54.8201 94.2222 54.7563 94.1052 54.7563C93.9244 54.7563 93.8925 54.7031 93.9351 54.5117C94.2647 53.076 94.5519 51.5659 94.6582 50.7045C94.7858 49.6624 94.7858 49.6517 95.073 49.6517C95.3601 49.6517 95.3601 49.6411 95.5409 48.5032C95.7748 46.9824 95.7748 46.9931 95.4026 46.9931C95.1155 46.9931 95.0942 47.025 95.0304 47.5461C94.9985 47.8545 94.956 48.2799 94.9454 48.4819C94.9347 48.684 94.8922 47.8438 94.8496 46.6209C94.8071 45.3873 94.7008 43.8452 94.605 43.1753C94.4243 41.9417 94.4243 41.8779 94.7858 41.7502C94.8815 41.7183 94.6476 40.5698 94.3711 39.7509C94.2435 39.3362 94.1797 39.2724 93.9776 39.3043C93.7543 39.3468 93.7011 39.2618 93.3821 38.411C92.9992 37.4113 92.2442 35.8481 91.8082 35.1568C91.5636 34.7633 91.5529 34.7102 91.7124 34.6038C91.8082 34.5294 91.8826 34.4337 91.8826 34.3911C91.8826 34.2741 90.7872 32.8385 90.5001 32.5833C90.298 32.4025 90.2768 32.4025 90.096 32.562C89.9152 32.7321 89.8833 32.7215 89.6387 32.4663C88.9049 31.6793 87.3204 30.7222 86.1399 30.35C85.5763 30.1692 85.5444 30.1479 85.5444 29.8076C85.5444 29.4886 85.5869 29.4354 85.906 29.3291C86.459 29.1483 87.7777 29.2653 88.7454 29.5949C89.979 30.0097 89.9046 29.914 89.7132 30.9349C89.6174 31.4241 89.5536 31.8282 89.5643 31.8495C89.6812 31.9558 91.2233 32.7428 91.319 32.7428C91.4572 32.7428 91.7869 31.7112 91.9996 30.6478C92.1697 29.7545 92.0847 28.7761 91.8188 28.4783C91.4998 28.1167 89.0113 26.9682 87.2566 26.362C85.3104 25.6921 83.2154 25.1497 81.9393 24.9795C80.2484 24.7668 80.3016 24.7775 80.2378 24.5223C80.2165 24.3946 80.0676 22.8739 79.9187 21.1511C79.7698 19.4283 79.5784 17.2376 79.4933 16.2911C79.3445 14.6321 79.3551 14.547 79.5359 14.2174C79.8443 13.6963 80.0038 12.7179 80.0038 11.4737C80.0038 10.0912 79.8549 9.70831 79.153 9.19785C77.6323 8.07059 68.9651 4.22088 67.3593 3.95502L67.019 3.90185L66.9765 2.71078C66.9339 1.32828 66.7744 0.95607 66.0938 0.626404C65.5408 0.360535 65.243 0.360535 64.7113 0.626404ZM65.1686 12.803C65.2218 28.9675 64.9772 38.3259 64.4242 41.1972C64.2327 42.2075 63.8499 42.4309 61.9888 42.6435C61.287 42.7286 60.6064 42.7286 59.7769 42.6648C58.5326 42.5585 58.2136 42.4309 58.4901 42.165C58.6177 42.048 58.8623 42.0374 59.8194 42.1118C61.723 42.2713 63.5202 41.9948 63.7861 41.495C64.0413 41.0165 64.2646 38.4429 64.4561 33.6467C64.5199 32.0622 64.5943 24.2245 64.6262 16.2273L64.6794 1.67922L64.9134 1.71113L65.1367 1.74303L65.1686 12.803ZM62.712 5.2418C62.7758 5.3056 62.5525 6.91142 62.478 6.9965C62.3611 7.10284 61.0743 7.21983 59.0005 7.28363L56.7886 7.35808L56.7673 6.9965C56.7247 6.02876 56.8311 5.56084 57.1289 5.40131C57.2565 5.33751 57.8095 5.2418 58.3731 5.18863C59.4047 5.10355 62.6163 5.14609 62.712 5.2418ZM49.7697 6.94333C49.7697 7.52823 49.7272 7.86854 49.6315 7.94298C49.557 8.00678 48.7063 8.1982 47.7492 8.37899C46.7814 8.55978 45.8881 8.74057 45.7605 8.77248C45.5372 8.83628 45.5159 8.80437 45.4946 8.37899C45.4734 7.62394 45.5266 7.28363 45.6967 7.09221C45.835 6.93269 48.4085 6.24145 49.2912 6.12447C49.472 6.1032 49.6421 6.0713 49.6953 6.06066C49.7378 6.06066 49.7697 6.45414 49.7697 6.94333ZM67.7209 8.08122L68.1463 8.1982L68.2101 9.01707C68.3164 10.3464 68.5078 14.3556 68.4653 14.3875C68.4547 14.3982 68.1356 14.6534 67.7847 14.9618C67.4231 15.2702 67.1041 15.5148 67.0615 15.5148C67.0296 15.5148 66.9977 13.792 66.9977 11.6757C66.9977 8.43217 67.019 7.84727 67.1466 7.8898C67.2317 7.92171 67.4869 8.00678 67.7209 8.08122ZM63.9137 15.5361C63.9137 22.959 63.7755 32.7747 63.6372 34.5187L63.5734 35.4014H61.1594H58.7347L58.6709 32.445C58.5752 28.6272 58.2561 22.7888 58.1179 22.6506C58.0966 22.6399 54.9062 22.6718 51.0353 22.7356C47.1536 22.7888 43.9633 22.8314 43.942 22.8101C43.9207 22.7888 44.3887 19.8218 44.9736 16.2167C45.5691 12.6222 46.0476 9.65514 46.0476 9.62324C46.0476 9.31483 54.6404 8.33646 59.8726 8.03869C60.1916 8.01742 61.2338 7.99615 62.1909 7.98551L63.9137 7.96425V15.5361ZM75.2076 10.357C76.4412 10.7292 77.4621 11.0589 77.4834 11.0695C77.494 11.0908 77.611 12.2925 77.728 13.7601C78.1108 18.216 78.5894 23.6183 78.6638 24.15L78.7276 24.6605H76.7071C73.6231 24.6605 73.857 24.5861 72.868 25.926C72.198 26.83 71.0282 28.4677 70.9857 28.5634C70.9857 28.574 70.454 28.4889 69.8159 28.3826C69.1672 28.2763 68.2526 28.1593 67.7847 28.1167L66.9233 28.0423L66.9658 22.5549C67.019 17.2376 67.0296 17.0462 67.2317 16.8228C67.3487 16.6952 67.9336 16.1741 68.5397 15.6743L69.6245 14.7491L70.89 14.7172C71.5812 14.6959 72.2831 14.6321 72.4426 14.5683C72.8361 14.4194 72.8786 14.0791 72.8255 11.6757C72.8042 10.5697 72.8148 9.66578 72.868 9.66578C72.9105 9.66578 73.9634 9.97417 75.2076 10.357ZM44.2398 11.1227C44.2291 11.3673 43.3996 16.2805 43.3571 16.3336C43.3252 16.3549 43.0062 16.323 42.634 16.2486L41.9746 16.121L42.0384 14.3662C42.081 13.3985 42.1129 12.3138 42.1129 11.9416V11.2822L43.1019 11.1759C43.6336 11.1227 44.1122 11.0695 44.1653 11.0589C44.2079 11.0589 44.2398 11.0802 44.2398 11.1227ZM31.8611 24.384C31.9569 24.6286 31.2869 28.255 30.9359 29.4035C30.6701 30.2436 30.5531 30.2968 28.7878 30.2968C27.7137 30.2968 19.9079 29.9033 17.8129 29.7438C17.6427 29.7332 20.3014 29.6907 23.7363 29.6587C27.1607 29.6268 30.0107 29.5737 30.0533 29.5205C30.1915 29.3929 30.4042 28.1912 30.6488 26.1706L30.8934 24.2351H31.3507C31.6378 24.2351 31.8292 24.2883 31.8611 24.384ZM80.0889 24.618C80.2059 24.7668 80.1846 24.7775 79.9187 24.7456C79.7486 24.7349 79.5997 24.6499 79.5678 24.5754C79.504 24.384 79.9187 24.4159 80.0889 24.618ZM56.5121 25.2667C56.7141 26.9044 56.8098 27.9785 56.7566 28.0317C56.7247 28.0636 51.7265 27.6914 45.6542 27.2128C39.5818 26.7342 34.2007 26.3195 33.6903 26.2876C33.1905 26.2557 32.7119 26.1919 32.6375 26.1387C32.5311 26.0749 32.563 25.9154 32.8076 25.4156L33.116 24.7668H44.7821H56.4482L56.5121 25.2667ZM75.5054 25.724C75.5054 25.7878 74.9417 26.9682 74.2399 28.3613C72.0172 32.8172 70.0073 37.0817 69.114 39.283C68.5397 40.6974 68.5291 40.6974 67.7421 40.3146C67.4337 40.1657 67.3487 40.0487 67.2742 39.6659C66.8488 37.6559 69.1565 32.8385 73.3466 26.9788L74.2292 25.7346L74.7397 25.6921C75.0162 25.6708 75.3033 25.6495 75.3778 25.6389C75.4416 25.6283 75.5054 25.6708 75.5054 25.724ZM82.7262 27.9998C82.7794 28.0742 82.4817 28.6804 81.9393 29.5737C80.2803 32.3387 78.9722 35.1036 78.2278 37.4113C77.7918 38.7407 77.4834 40.5273 77.5578 41.2185L77.611 41.6758H76.6114H75.6117L75.6755 41.378C76.7177 36.6669 78.7064 31.7857 81.1098 28.0317L81.5671 27.3085L82.0988 27.5956C82.3966 27.7552 82.6731 27.9359 82.7262 27.9998ZM56.8949 33.0618C56.8949 35.2844 56.863 36.1458 56.7779 36.1458C56.7035 36.1458 55.8421 35.8055 54.8637 35.3908L53.0665 34.6251V32.3599V30.0948L54.534 30.0522C55.3316 30.0416 56.193 30.0097 56.4482 29.9991L56.8949 29.9778V33.0618ZM86.4377 32.8597C86.8099 32.9236 87.0758 33.0193 87.0226 33.0618C86.8525 33.232 85.4168 33.6148 84.013 33.8594C83.2261 33.9976 82.5561 34.0934 82.5455 34.0721C82.5135 34.0402 82.9496 33.2107 83.1197 32.9767C83.1304 32.9555 83.375 32.9023 83.6621 32.8491C84.4278 32.7215 85.6614 32.7321 86.4377 32.8597ZM28.9685 33.1894C29.0536 33.3277 29.0536 33.434 28.9685 33.5616C28.8622 33.7424 28.4155 33.7531 22.5878 33.785C16.792 33.8062 16.3134 33.7956 16.1964 33.6254C16.0156 33.3915 16.0263 33.3277 16.2283 33.1256C16.3772 32.9767 17.0685 32.9555 22.6197 32.9767C28.4155 33.0086 28.8622 33.0193 28.9685 33.1894ZM31.4145 38.645C31.8718 41.7183 32.2334 44.26 32.2121 44.2813C32.1908 44.3025 31.5846 41.846 30.8615 38.8364C30.149 35.8162 29.5853 33.3277 29.6066 33.2958C29.6598 33.2532 30.2553 33.0937 30.468 33.0724C30.5425 33.0618 30.9147 35.3163 31.4145 38.645ZM29.5003 35.3163C29.5853 35.4546 29.5853 35.5609 29.5003 35.6885C29.3939 35.8693 28.9579 35.88 23.2684 35.9119C16.6005 35.9331 16.8026 35.9544 16.9515 35.3482L17.0153 35.0824L23.2046 35.1036C28.9579 35.1355 29.3939 35.1462 29.5003 35.3163ZM84.0662 36.316C83.7791 36.5393 82.8751 36.9434 81.801 37.3263L80.9184 37.6347L80.9928 37.3901C81.0247 37.2625 81.1523 36.986 81.2587 36.7733C81.4288 36.4436 81.5245 36.3692 81.9606 36.2734C82.2371 36.2203 82.8751 36.1671 83.375 36.1671C84.2151 36.1565 84.2683 36.1671 84.0662 36.316ZM63.0629 37.4964C63.0629 39.1129 63.2118 38.9853 61.3295 39.0597C60.4362 39.1022 59.4791 39.1554 59.192 39.1873L58.6709 39.2511L58.7559 37.9431C58.7985 37.2199 58.8517 36.5925 58.8836 36.5393C58.9048 36.4968 59.8619 36.4649 60.9998 36.4649H63.0629V37.4964ZM29.7555 37.4645C29.7768 37.5709 29.7342 37.6985 29.6492 37.7516C29.4896 37.858 17.8767 37.8793 17.6108 37.7836C17.4407 37.7197 17.3769 37.4113 17.5151 37.2837C17.547 37.2412 20.312 37.2199 23.6513 37.2306C29.5003 37.2625 29.7236 37.2731 29.7555 37.4645ZM89.6281 39.3256C90.7872 39.9105 91.7124 41.6333 92.2123 44.1217C92.4888 45.4617 92.5951 48.2692 92.425 49.875C91.8826 55.0328 89.6812 58.7017 87.448 58.1381C87.1928 58.0743 86.9907 57.9998 86.9907 57.9573C87.0013 57.9254 87.1928 57.7659 87.4161 57.6064C88.7029 56.7131 89.8939 54.1608 90.3938 51.1937C90.6065 49.9708 90.6277 49.556 90.5745 47.6312C90.532 46.2168 90.4576 45.1852 90.3512 44.7066C89.8089 42.3458 88.9156 40.6974 87.767 39.9743C87.2672 39.6552 87.2778 39.5808 87.9585 39.2937C88.4583 39.0703 89.1601 39.081 89.6281 39.3256ZM30.2447 39.6871C30.3404 39.8467 30.3191 39.9105 30.1596 40.0381C29.9788 40.1657 29.0536 40.187 24.2681 40.187C18.6424 40.187 18.1851 40.1551 18.1851 39.836C18.1851 39.4425 18.3127 39.4425 24.2787 39.4638C29.7874 39.4957 30.1277 39.5063 30.2447 39.6871ZM12.1766 40.2614C12.2191 40.5485 12.2085 40.7187 12.1447 40.7187C12.0809 40.7187 11.3683 40.8357 10.5601 40.9846C8.84795 41.3036 7.65688 41.612 7.09325 41.9098C6.48708 42.2075 6.49772 42.0799 7.10389 41.6864C8.05036 41.0803 11.8682 39.5808 12.0277 39.7403C12.0702 39.7828 12.134 40.0168 12.1766 40.2614ZM49.0572 40.2508C49.3869 40.4422 47.8981 40.825 44.7715 41.3461C43.7506 41.5269 42.6978 41.7396 42.4425 41.8353C42.1873 41.9204 41.9533 41.9736 41.9214 41.9417C41.8045 41.8353 42.7616 41.0484 43.3358 40.7719C44.4206 40.2614 45.484 40.0806 47.2706 40.1125C48.1533 40.1232 48.9509 40.187 49.0572 40.2508ZM81.4395 41.059C81.3757 41.2291 79.9613 42.2075 79.7698 42.2075C79.6741 42.2075 79.6529 42.1331 79.6954 41.9629C79.7273 41.8353 79.7592 41.6226 79.7592 41.495C79.7592 41.2185 80.1633 41.0803 81.3331 40.942C81.4182 40.942 81.4607 40.9952 81.4395 41.059ZM30.5212 41.729C30.6275 41.8566 30.6275 41.9204 30.5212 42.048C30.4042 42.1863 29.6173 42.2075 24.5977 42.2075C19.557 42.2075 18.8125 42.1863 18.7594 42.048C18.7168 41.9629 18.7168 41.814 18.7594 41.729C18.8125 41.5907 19.557 41.5695 24.5977 41.5695C29.6173 41.5695 30.4042 41.5907 30.5212 41.729ZM39.9859 41.9948C40.2093 42.1118 40.5177 42.367 40.6666 42.5585C40.9324 42.8988 41.2515 43.8452 41.1345 43.9622C41.0281 44.0686 40.4645 43.7921 40.1136 43.4518C39.6882 43.0477 39.5074 42.718 39.4117 42.1756C39.3266 41.7183 39.3904 41.6971 39.9859 41.9948ZM87.6075 42.1331C88.99 43.3986 89.2984 49.2689 88.1499 52.7357C87.65 54.2565 86.9056 55.288 86.3101 55.288C85.7571 55.288 85.1935 54.5223 84.8213 53.2675L84.6511 52.6826L84.9595 53.0229C85.3743 53.4802 85.7571 53.5652 86.1187 53.2994C87.1396 52.555 87.767 50.4706 87.7777 47.8438C87.7883 45.7169 87.3629 44.2387 86.6291 43.7921C86.2037 43.5368 85.9698 43.6113 85.4806 44.143C85.2573 44.377 85.0765 44.5471 85.0765 44.5152C85.0765 44.2813 85.6507 42.9732 85.9379 42.5691C86.4696 41.7928 87.0651 41.6439 87.6075 42.1331ZM71.3366 42.2501C71.8152 42.3245 72.2406 42.4202 72.2725 42.4521C72.315 42.484 72.2406 43.037 72.1236 43.6645C71.996 44.2919 71.8684 45.0151 71.8365 45.2703C71.7939 45.5468 71.7088 45.7169 71.645 45.685C71.5387 45.6531 71.0495 44.5365 70.2625 42.5478C70.0499 42.0161 69.9967 42.0267 71.3366 42.2501ZM78.6638 42.8031C78.4937 42.9732 76.0371 44.1005 76.0371 44.0048C76.0371 43.8133 76.2711 43.4411 76.6007 43.0796C76.9198 42.7499 76.9517 42.7393 77.8343 42.7393C78.3235 42.7393 78.7064 42.7712 78.6638 42.8031ZM73.9634 44.3876C74.5483 45.1639 75.6117 46.9612 75.6117 47.1526C75.6011 47.3121 74.6546 46.2699 74.091 45.4723C73.5805 44.7705 72.7404 43.3029 72.7404 43.1221C72.7404 42.9519 73.3678 43.6007 73.9634 44.3876ZM31.0316 43.8452C31.0529 44.0154 31.0104 44.1856 30.9253 44.2387C30.8509 44.2919 28.2986 44.3344 25.2571 44.3344C19.5251 44.3344 19.4612 44.3344 19.4612 43.9091C19.4612 43.4837 19.5038 43.4837 25.3634 43.5049L30.9997 43.5368L31.0316 43.8452ZM68.4866 44.143V44.6854L66.8169 44.6109C63.1799 44.4621 62.0633 44.3982 62.2654 44.3557C62.3823 44.3238 63.7967 44.1537 65.4025 43.9622C67.0084 43.7708 68.359 43.6113 68.4121 43.6007C68.4547 43.6007 68.4866 43.8346 68.4866 44.143ZM46.0476 43.8665C46.0476 43.9516 44.5694 44.6109 43.5485 44.9619C43.0487 45.1427 41.8895 45.5042 40.9643 45.7807C40.0498 46.0466 39.1565 46.3444 38.9969 46.4294C38.529 46.6634 38.5396 46.5252 39.0288 46.0041C40.0391 44.8981 43.07 43.8346 45.2288 43.8133C45.6754 43.8027 46.0476 43.8346 46.0476 43.8665ZM8.76288 44.3982C8.80542 44.6003 8.85859 44.8343 8.89049 44.9193C8.93303 45.0151 8.75224 45.0895 8.25242 45.1746C6.71041 45.4404 5.25347 46.0147 4.5835 46.6209C4.08367 47.0782 4.01986 47.0356 4.43461 46.5039C4.74301 46.0891 5.74266 45.3447 6.48708 44.9619C7.00817 44.696 8.51828 44.0367 8.62463 44.026C8.66717 44.0154 8.73097 44.1856 8.76288 44.3982ZM68.2739 46.0041V46.4933L66.5511 46.4188C63.0417 46.2806 61.8931 46.2168 61.9357 46.1742C61.9995 46.1104 68.1037 45.4298 68.1994 45.4723C68.242 45.4936 68.2739 45.7382 68.2739 46.0041ZM36.1575 46.1104C36.7211 46.7591 37.0827 47.3759 37.3911 48.2054C37.6782 49.003 37.8271 49.8644 37.6676 49.8644C37.4656 49.8644 36.5935 48.769 36.2213 48.0565C35.6683 46.9931 35.328 45.6106 35.6151 45.6106C35.6683 45.6106 35.9129 45.8339 36.1575 46.1104ZM22.2262 46.1955C26.0228 46.3763 28.8835 46.5571 29.2238 46.6209C29.5003 46.6847 29.5109 46.7698 29.2982 47.2802C29.16 47.6099 29.1068 47.6524 28.8409 47.5992C28.5219 47.5354 24.1298 46.9931 18.7168 46.355L15.1542 45.9403L17.0685 45.9934C18.1213 46.0253 20.4396 46.1104 22.2262 46.1955ZM2.19072 46.9612C2.57356 47.78 3.61575 50.109 3.61575 50.1515C3.61575 50.1728 3.55194 50.1834 3.4775 50.1834C3.34989 50.1834 1.6909 46.674 1.70153 46.4294C1.70153 46.1849 1.93549 46.4294 2.19072 46.9612ZM14.6013 46.8017C14.5587 46.8761 14.3248 47.227 14.0695 47.5886C12.921 49.2263 12.4743 50.7152 12.5807 52.5443C12.7934 56.2026 14.6544 58.9038 17.3662 59.478C17.9724 59.595 18.1638 59.595 18.7275 59.4674C20.5247 59.0527 21.8859 57.7446 22.6091 55.7453C22.7686 55.288 22.9175 54.8946 22.9387 54.8733C23.0026 54.7776 25.7675 55.5539 25.8101 55.6815C25.8845 55.8729 25.3741 57.1065 24.8849 57.9467C22.2688 62.3813 17.0791 63.3171 13.7079 59.9672C12.7508 59.0208 12.134 58.0849 11.698 56.9577C11.1557 55.5539 11.0174 54.8414 11.0174 53.2675C11.0174 51.9701 11.0493 51.7574 11.3045 51.0342C11.7618 49.79 12.3786 48.8435 13.5059 47.7056C14.4417 46.7698 14.8246 46.4507 14.6013 46.8017ZM80.2909 47.0356C80.2909 47.1526 78.6957 48.2373 77.3133 49.0668C76.4625 49.5773 75.6224 50.1303 75.4416 50.3111C75.0481 50.6833 74.9311 50.5876 75.1119 50.0133C75.3033 49.3752 76.4412 48.2905 77.4409 47.7907C78.3448 47.3547 79.4083 47.0143 79.9506 47.0037C80.1314 46.9931 80.2909 47.0143 80.2909 47.0356ZM56.0654 47.5886C57.735 48.7478 58.6602 52.4699 58.288 56.4578C57.7138 62.477 55.0338 67.4114 52.3539 67.4114C52.0349 67.4114 51.6308 67.337 51.45 67.2413L51.1097 67.0605L51.4819 66.8691C52.439 66.3799 53.5769 65.008 54.417 63.3171C57.1927 57.7765 56.7354 49.6943 53.5344 47.7694C53.3536 47.6631 53.3749 47.6312 53.8109 47.4291C54.5128 47.0888 55.4592 47.1632 56.0654 47.5886ZM66.7425 48.3224C66.583 50.6726 65.7322 51.6936 63.9775 51.6616C63.5628 51.651 63.3713 51.6191 63.5415 51.5978C64.3923 51.4809 64.9559 51.2363 65.3281 50.8322C65.8598 50.2473 65.9874 49.4284 65.796 47.9183L65.7216 47.3121H66.2639H66.8169L66.7425 48.3224ZM73.5912 50.3855C74.7503 51.5447 75.7181 52.7676 75.5905 52.8953C75.5585 52.9272 75.0268 52.4699 74.3994 51.8743C73.3572 50.8747 72.5171 49.9282 72.0385 49.1838L71.8471 48.8754L72.1023 49.0136C72.2512 49.0881 72.9212 49.7049 73.5912 50.3855ZM7.11452 49.6092C7.24214 49.8112 7.33785 50.0239 7.33785 50.0665C7.33785 50.1196 6.69977 50.4812 5.91282 50.8641C5.03015 51.3001 4.28573 51.7467 3.94542 52.0551C3.64765 52.321 3.40306 52.5018 3.40306 52.438C3.40306 52.2359 4.24319 51.2894 4.91317 50.7471C5.43426 50.3111 6.78485 49.2689 6.88056 49.237C6.88056 49.2263 6.98691 49.3965 7.11452 49.6092ZM42.9636 49.2795C42.9636 49.4284 40.975 50.5876 39.0182 51.5766C36.9019 52.6507 36.8275 52.6719 36.9338 52.3848C37.1784 51.6616 38.6885 50.4812 40.1136 49.8963C41.3046 49.4071 42.9636 49.0455 42.9636 49.2795ZM53.3749 50.2153C53.7258 50.545 53.981 51.1512 54.1937 52.204C54.4489 53.4908 54.3532 56.4259 53.981 58.2232C52.9495 63.3278 50.6418 65.7737 49.5783 62.913C49.2699 62.0835 49.2699 61.8815 49.6102 61.8815C50.3227 61.8815 51.4075 60.1268 51.9605 58.1062C52.2263 57.1597 52.2582 56.8513 52.2582 55.288C52.2689 53.6184 52.2582 53.5014 52.003 53.0016C51.6627 52.321 51.2905 52.1189 50.8226 52.3529C50.5142 52.5124 50.5035 52.5018 50.578 52.2785C50.6843 51.9169 51.1416 51.1406 51.5351 50.6514C52.1625 49.8644 52.8219 49.7155 53.3749 50.2153ZM34.4453 52.4911C34.6899 52.757 35.0409 53.2249 35.2429 53.5227C35.8916 54.5117 36.5829 56.0644 36.434 56.2132C36.3383 56.309 34.9983 54.969 34.5091 54.2778C33.9455 53.5014 33.1798 51.9381 33.1798 51.5872V51.332L33.6052 51.6723C33.8285 51.8531 34.2114 52.2253 34.4453 52.4911ZM1.71216 52.5443C2.42468 53.629 3.4456 55.4263 3.55194 55.7879C3.73273 56.3515 3.38179 55.958 2.81816 54.9371C2.47785 54.3416 1.90359 53.3632 1.53138 52.7676C1.15917 52.1827 0.850765 51.6616 0.850765 51.6297C0.850765 51.3745 1.15917 51.7042 1.71216 52.5443ZM79.1424 53.9162C78.3023 54.7138 77.3983 55.3412 76.6326 55.6602C76.2711 55.8091 76.2498 55.8091 76.2498 55.6283C76.2498 55.0753 77.728 53.6184 78.6532 53.2568C79.0786 53.0973 79.7911 52.9697 79.9081 53.0335C79.9719 53.0654 79.6209 53.4589 79.1424 53.9162ZM74.4845 55.8836C75.1863 56.7131 75.5798 57.3086 75.4203 57.3086C75.08 57.3086 72.2087 54.2352 72.2087 53.8843C72.2087 53.6929 73.8358 55.1285 74.4845 55.8836ZM7.33785 55.203C7.43356 55.3625 7.27404 55.5007 6.32756 56.1388C5.70012 56.5535 4.88126 57.1704 4.48778 57.5C3.92415 57.9786 3.81781 58.0317 3.97733 57.7872C4.32827 57.2342 4.91317 56.5429 5.89155 55.522L6.84866 54.533L7.04008 54.7776C7.14642 54.9158 7.28467 55.1072 7.33785 55.203ZM41.5386 56.0218C41.4322 56.192 39.6456 57.3618 38.1781 58.2232C37.3911 58.6805 36.5403 59.2654 36.2745 59.51C36.0193 59.7652 35.7853 59.9672 35.764 59.9672C35.6683 59.9672 35.764 59.5419 35.9342 59.159C36.4765 57.9679 38.3163 56.6812 40.2518 56.1282C40.9431 55.9261 41.6237 55.8729 41.5386 56.0218ZM2.60547 57.9679C3.60512 58.9782 4.81746 60.5734 4.71111 60.7436C4.66857 60.8074 4.5835 60.7755 4.47715 60.6372C4.38144 60.5202 4.00923 60.0417 3.64765 59.5738C2.99895 58.7549 1.7547 57.4894 1.32932 57.2342C1.12726 57.1172 1.1379 57.1065 1.42503 57.1065C1.66963 57.0959 1.90359 57.2661 2.60547 57.9679ZM81.6734 57.7233C81.6734 57.9786 80.4717 58.8612 79.4614 59.3504C78.8553 59.6376 78.3342 59.8503 78.3023 59.829C78.2704 59.7971 78.3023 59.6057 78.3661 59.4142C78.5894 58.7443 79.6103 57.9679 80.5781 57.7446C81.1204 57.617 81.6734 57.6064 81.6734 57.7233ZM75.5479 60.0949C76.7496 61.2859 77.7493 62.5514 77.611 62.6791C77.5259 62.7748 75.4628 60.7648 74.8886 60.0417C73.5592 58.3508 73.8251 58.3827 75.5479 60.0949ZM8.85859 59.4142L9.14572 59.7226L7.90148 60.9882C7.18896 61.7007 6.54025 62.4664 6.41264 62.7322C6.25312 63.0513 6.16805 63.1363 6.16805 62.9875C6.16805 62.4345 8.11417 59.1165 8.44384 59.1165C8.51828 59.1165 8.69907 59.2547 8.85859 59.4142ZM84.3746 60.8605C84.2789 61.1051 83.0027 62.0835 81.918 62.7429C81.0141 63.2852 80.8758 63.3384 80.8439 63.1576C80.7801 62.7535 81.3438 61.9453 82.1201 61.3604C82.7581 60.8818 84.5128 60.4883 84.3746 60.8605ZM40.9856 62.9556C40.507 63.4766 39.2628 64.4657 38.4439 64.9868C37.7527 65.4334 36.4553 66.1353 36.317 66.1353C36.2107 66.1353 36.6148 65.444 36.9551 65.0399C37.9335 63.902 40.0285 62.6578 41.0388 62.6365L41.3046 62.6259L40.9856 62.9556ZM42.8466 68.2197C42.4106 68.6876 41.5599 69.3044 40.1774 70.1658C39.2734 70.7188 39.1352 70.772 39.1352 70.5912C39.1352 70.0275 39.9328 69.0598 40.8686 68.4855C41.3791 68.1665 42.3681 67.8474 42.8466 67.8474L43.2189 67.8368L42.8466 68.2197Z" fill="white"/>
</svg>
