<svg width="96" height="75" viewBox="0 0 96 75" fill="none" xmlns="http://www.w3.org/2000/svg">
<path fill-rule="evenodd" clip-rule="evenodd" d="M38.3799 9.58162L62.7671 8.76784C63.0297 8.8466 63.3622 8.92535 63.7472 9.01285V0.192508C63.7472 0.141451 63.7675 0.0924863 63.8036 0.0563841C63.8397 0.020282 63.8886 0 63.9397 0C63.9907 0 64.0397 0.020282 64.0758 0.0563841C64.1119 0.0924863 64.1322 0.141451 64.1322 0.192508V9.14411C66.4598 9.72163 70.0212 10.8504 70.0824 14.6568L70.2837 27.4236L62.5571 22.8734L61.9796 50.4632L56.8782 50.7082C55.1981 45.073 51.1904 39.7878 44.3039 42.7454C39.7362 44.7055 33.0947 52.8258 33.0947 52.8258C33.9133 52.0884 34.8756 51.5284 35.9211 51.1808C35.9211 51.1808 41.8626 44.3467 45.2052 43.3054C51.943 41.2579 54.3756 45.0555 56.7469 50.6907H56.0381L57.0707 52.5633L70.6512 51.137L70.8 60.8674L71.5 60.7011L71.3512 50.927L68.9536 51.1808V50.122L62.9421 50.4107L63.0384 23.6609L70.2749 27.5636L70.6337 49.8332H71.3425V47.9081H71.6225V46.3418L71.3687 17.4657H71.1675L71.0537 14.0443C71.0556 13.1733 70.8194 12.3184 70.3706 11.5719C69.9218 10.8255 69.2775 10.2159 68.5074 9.80913H74.0551L96.0009 31.2737V49.5794L94.2509 49.5182C94.9596 51.6533 94.1109 57.2535 93.5596 57.586C93.0083 57.9185 88.7994 58.3823 88.1956 57.656C87.5919 56.9297 87.5831 54.7946 87.5831 54.7946L81.0641 55.2847L79.6291 56.0109C79.6991 58.9861 79.174 61.2086 77.984 62.3724C76.9952 63.3437 75.6214 63.4925 73.1013 63.65C70.5812 63.8075 68.9974 63.0375 68.9274 61.4186L56.6769 64.35C56.1956 60.2374 56.9219 54.6021 53.8943 50.192C52.5205 48.1881 49.9566 50.0082 48.4253 55.9234C45.0039 56.1247 38.7037 56.3347 31.0471 56.361C32.1555 51.434 32.9302 46.4379 33.366 41.4066C33.5497 38.939 32.2984 37.609 30.0234 37.6265L9.74882 37.7752C9.01812 37.7871 8.29414 37.9171 7.60498 38.1602C7.955 35.8414 15.2878 31.3787 17.7904 31.3612C17.8691 31.125 17.9566 30.8975 18.0354 30.6525C28.8508 29.3661 51.0417 29.3836 52.3192 30.4774C53.7368 25.6823 54.8918 20.5808 56.2131 21.0796C56.2131 21.0796 56.7032 21.3508 54.8043 20.4671C52.9055 19.5833 36.4286 20.2745 26.952 20.8433C24.3032 20.9191 21.667 21.2384 19.0767 21.7971C19.6892 20.7383 19.7942 20.047 21.0368 19.3733C22.8902 18.4044 24.8607 17.678 26.8995 17.2119V3.05387C26.8995 3.00281 26.9198 2.95385 26.9559 2.91775C26.992 2.88164 27.0409 2.86136 27.092 2.86136C27.1431 2.86136 27.192 2.88164 27.2281 2.91775C27.2642 2.95385 27.2845 3.00281 27.2845 3.05387V17.1244C27.5995 17.0544 27.897 16.9844 28.1595 16.9319C31.5284 14.4906 30.9946 9.85289 38.2487 9.61663L38.3799 9.58162ZM49.7554 20.8346L52.0217 20.7821C51.3894 21.2055 50.8625 21.7683 50.4817 22.4271H47.3578L47.524 21.9021C47.8916 20.7121 48.8716 20.8521 49.7991 20.8346H49.7554ZM50.0179 23.2934C49.1341 25.3322 48.6791 27.7998 48.1278 29.6374C47.1753 29.4025 46.1884 29.3403 45.214 29.4537L47.1303 23.3284H50.0879L50.0179 23.2934ZM92.6408 51.7758C92.8831 52.4567 92.9669 53.1839 92.8858 53.9021C92.9674 54.6232 92.8836 55.3533 92.6408 56.0372C92.403 55.3522 92.3193 54.6232 92.3958 53.9021C92.3198 53.1839 92.4035 52.4578 92.6408 51.7758ZM93.6296 51.6708C93.8719 52.3517 93.9557 53.0789 93.8746 53.7971C93.9602 54.5268 93.8764 55.2664 93.6296 55.9584C93.3918 55.2734 93.3081 54.5444 93.3846 53.8234C93.3046 53.0965 93.3883 52.361 93.6296 51.6708ZM74.8951 53.5521C75.3764 53.5521 75.7701 55.4334 75.7176 57.7523C75.6651 60.0711 75.2801 61.9437 74.8426 61.9437C74.4051 61.9437 73.9676 60.0623 73.9676 57.7523C73.9676 55.4422 74.4138 53.5521 74.8951 53.5521ZM78.0365 52.9921C78.5178 52.9921 78.9115 54.6896 78.8678 56.7722C78.7978 61.7424 77.0477 61.7687 77.1177 56.7722C77.1177 54.6896 77.5552 52.9921 78.0365 52.9921ZM1.16473 64.7088C1.25681 65.0166 1.41944 65.2987 1.63971 65.5327C1.85997 65.7666 2.13179 65.9459 2.43353 66.0563C3.10801 66.2029 3.7924 66.2994 4.48111 66.3451C4.42412 67.7617 4.75062 69.1675 5.42615 70.414C6.42369 72.2516 8.20876 72.0941 11.3764 72.0941C14.544 72.0941 16.8716 69.3027 16.7491 67.5964C16.7491 67.4564 16.7491 67.3339 16.7491 67.2289C26.5932 67.8326 38.3187 68.3752 40.8213 68.2177L42.8776 68.1039C42.8076 70.0115 43.1226 72.0766 43.4376 72.4791C43.8162 73.021 44.3204 73.4633 44.907 73.7681C45.4937 74.0728 46.1454 74.231 46.8065 74.2291C48.2586 74.4205 49.7296 74.4205 51.1817 74.2291C53.6055 73.8966 54.7606 69.1452 55.2156 66.0388C55.8631 61.6637 54.5856 54.4446 53.3693 53.2546C52.7139 52.5353 51.8295 52.0653 50.8667 51.9245C50.0836 53.3134 49.4947 54.8032 49.1166 56.3522C48.1978 56.4047 47.0778 56.466 45.774 56.5185L45.6165 56.8247C40.97 57.0172 33.8735 57.1747 25.7707 57.1047C18.3592 57.0347 10.1163 56.7722 2.14477 56.1684C1.60636 56.1128 1.08818 55.9331 0.630962 55.6434C0.430174 55.7318 0.211141 55.7708 -0.0078125 55.7572V63.8337C1.05098 65.1725 42.4576 67.0364 47.1478 65.2076C47.285 62.5069 47.6332 59.8211 48.1891 57.1747H48.9153C48.292 59.975 47.9085 62.8234 47.7691 65.6888C47.1196 65.9026 46.4468 66.0377 45.7652 66.0913C45.4152 66.1438 45.0039 66.1876 44.5577 66.2313L43.0876 66.3276C36.9624 66.7039 25.7794 66.4676 16.3378 65.9951H16.2766C11.221 65.8188 6.17739 65.3895 1.16473 64.7088ZM51.4792 56.3697C52.8442 56.3697 53.9468 59.5286 53.9468 63.4225C53.9468 67.3164 52.8442 70.4753 51.4792 70.4753C50.1141 70.4753 49.0028 67.3339 49.0028 63.405C49.0028 59.4761 50.1141 56.3522 51.4704 56.3522L51.4792 56.3697ZM15.3578 26.391V31.265C14.1641 31.7502 13.0137 32.3356 11.9189 33.015V28.6399C11.8366 28.1704 11.9222 27.6869 12.1605 27.2741C12.3989 26.8614 12.7749 26.5457 13.2227 26.3823L15.3578 26.391ZM68.7349 47.3919H68.5949L66.451 47.4794C66.0748 47.4794 65.8385 46.9018 65.8385 46.4818V40.6628C65.576 40.6628 65.3747 40.8816 65.3747 41.2491V47.9869C65.3747 48.4069 65.611 48.9932 65.9873 48.9844L68.1223 48.8969C68.4986 48.8969 68.7349 48.7657 68.7349 48.3369V47.3831V47.3919ZM68.7349 35.5701H68.5949L66.5035 35.1151C66.1273 35.0364 65.891 34.3976 65.891 33.9688V28.2636C65.6285 28.1849 65.4272 28.3686 65.4272 28.7361V35.4651C65.4272 35.8939 65.6635 36.5327 66.0398 36.6114L68.1749 37.0314C68.5511 37.1102 68.7874 37.0314 68.7874 36.6202V35.5614L68.7349 35.5701ZM18.4204 38.8865C19.4092 38.8865 20.1705 39.3328 20.1705 39.8841C20.1705 40.4353 19.3742 40.8903 18.4204 40.8903C17.4666 40.8903 16.6703 40.4441 16.6703 39.8841C16.6703 39.324 17.4666 38.8865 18.4204 38.8865ZM8.58502 54.6984H11.7876L12.2514 40.0941H9.89757C9.3324 40.0673 8.77897 40.2614 8.35437 40.6354C7.92977 41.0094 7.6673 41.5339 7.62249 42.0979C7.62249 46.0093 7.69249 49.1944 7.69249 53.1058C7.79749 54.2171 8.095 54.7509 8.56752 54.6984H8.58502ZM12.5577 54.6984H17.7466L18.1579 41.3279C16.9854 41.2491 16.0578 40.7416 15.8828 40.0941H13.0039L12.5577 54.6984ZM18.5167 54.6984H24.0644L24.5019 40.0941H21.0018C20.8355 40.7066 20.0042 41.1879 18.9454 41.3016L18.5342 54.6984H18.5167ZM24.8344 54.6984H28.2033C29.3846 54.6984 29.1308 54.8296 29.3058 53.6133C29.8542 49.6699 30.4084 45.7205 30.9684 41.7654C30.9254 41.3597 30.7535 40.9784 30.4779 40.6776C30.2023 40.3768 29.8375 40.1723 29.4371 40.0941H25.2807L24.8344 54.6984ZM63.2134 18.2182H64.2022C64.2718 18.2182 64.3386 18.2459 64.3878 18.2951C64.437 18.3443 64.4647 18.4111 64.4647 18.4807V19.8633C64.4625 19.9322 64.4342 19.9977 64.3854 20.0465C64.3366 20.0952 64.2711 20.1236 64.2022 20.1258H63.2134C63.1438 20.1258 63.077 20.0981 63.0278 20.0489C62.9786 19.9997 62.9509 19.9329 62.9509 19.8633V18.4807C62.9497 18.4459 62.9556 18.4112 62.9684 18.3788C62.9812 18.3464 63.0004 18.317 63.0251 18.2924C63.0497 18.2678 63.0791 18.2485 63.1115 18.2357C63.1439 18.2229 63.1786 18.217 63.2134 18.2182ZM5.18989 60.9024L3.26482 60.8061C3.18994 60.8013 3.11487 60.812 3.04435 60.8376C2.97383 60.8633 2.9094 60.9033 2.85513 60.9551C2.80085 61.0069 2.75791 61.0694 2.72902 61.1386C2.70013 61.2079 2.68593 61.2824 2.68729 61.3574V63.2387C2.68704 63.3953 2.74674 63.546 2.85415 63.6599C2.96156 63.7738 3.10851 63.8423 3.26482 63.8512L5.18989 63.9562C5.26517 63.961 5.34064 63.9503 5.41162 63.9248C5.48259 63.8992 5.54757 63.8594 5.60253 63.8077C5.65749 63.756 5.70125 63.6936 5.73112 63.6244C5.76098 63.5551 5.77632 63.4804 5.77616 63.405V61.5237C5.77435 61.3654 5.71303 61.2136 5.6044 61.0985C5.49577 60.9834 5.34779 60.9134 5.18989 60.9024ZM35.9823 62.0137H32.2109C32.0547 62.016 31.9055 62.0797 31.7958 62.191C31.6861 62.3024 31.6247 62.4524 31.6247 62.6087V64.49C31.627 64.644 31.6898 64.7909 31.7994 64.8989C31.9091 65.007 32.057 65.0676 32.2109 65.0675H35.9823C36.0593 65.0675 36.1356 65.0524 36.2067 65.0229C36.2778 64.9935 36.3425 64.9503 36.3969 64.8958C36.4513 64.8414 36.4945 64.7768 36.524 64.7056C36.5534 64.6345 36.5686 64.5583 36.5686 64.4813V62.5912C36.5686 62.5146 36.5534 62.4388 36.5238 62.3681C36.4943 62.2975 36.4509 62.2334 36.3964 62.1797C36.3418 62.126 36.2771 62.0836 36.206 62.0551C36.135 62.0266 36.0589 62.0125 35.9823 62.0137ZM11.4289 60.9549L7.81499 60.7886C7.72862 60.7838 7.64218 60.7968 7.56105 60.8269C7.47993 60.8569 7.40587 60.9034 7.34348 60.9633C7.28109 61.0232 7.23171 61.0954 7.19842 61.1752C7.16512 61.2551 7.14863 61.3409 7.14997 61.4274V63.5625C7.15184 63.7416 7.22146 63.9134 7.34484 64.0433C7.46822 64.1731 7.6362 64.2515 7.81499 64.2625L11.4289 64.4288C11.5153 64.4336 11.6017 64.4206 11.6828 64.3905C11.7639 64.3605 11.838 64.314 11.9004 64.2541C11.9628 64.1942 12.0122 64.122 12.0455 64.0422C12.0788 63.9623 12.0952 63.8765 12.0939 63.79V61.6549C12.092 61.4758 12.0224 61.304 11.899 61.1741C11.7757 61.0443 11.6077 60.9659 11.4289 60.9549ZM24.9219 61.7162L28.9208 61.8037C29.098 61.806 29.2671 61.878 29.3916 62.0041C29.5161 62.1302 29.5859 62.3002 29.5858 62.4774V64.6213C29.5859 64.7078 29.5686 64.7935 29.5349 64.8732C29.5013 64.9529 29.452 65.0251 29.39 65.0854C29.328 65.1458 29.2546 65.1931 29.174 65.2246C29.0934 65.2561 29.0073 65.2711 28.9208 65.2688L24.9219 65.1813C24.7447 65.179 24.5756 65.107 24.4511 64.9809C24.3267 64.8548 24.2569 64.6847 24.2569 64.5075V62.3637C24.258 62.2775 24.2761 62.1924 24.3102 62.1132C24.3442 62.034 24.3935 61.9623 24.4553 61.9022C24.517 61.842 24.59 61.7947 24.6701 61.7628C24.7502 61.7308 24.8357 61.715 24.9219 61.7162ZM13.949 61.3836L22.0255 61.5499C22.1649 61.5544 22.2971 61.6123 22.3949 61.7117C22.4926 61.8111 22.5484 61.9443 22.5506 62.0837V64.3675C22.5506 64.4357 22.5369 64.5031 22.5103 64.5659C22.4837 64.6286 22.4448 64.6854 22.3958 64.7327C22.3468 64.7801 22.2888 64.8171 22.2251 64.8415C22.1615 64.866 22.0937 64.8774 22.0255 64.875L13.949 64.7088C13.8097 64.7043 13.6774 64.6464 13.5796 64.547C13.4819 64.4476 13.4261 64.3144 13.424 64.175V61.8912C13.4239 61.823 13.4376 61.7556 13.4642 61.6928C13.4908 61.6301 13.5297 61.5733 13.5787 61.526C13.6277 61.4786 13.6858 61.4416 13.7494 61.4171C13.813 61.3927 13.8809 61.3813 13.949 61.3836ZM58.3482 25.6735H61.2533C61.6733 25.726 61.8309 26.2073 61.7171 26.7935V34.0826C61.6646 34.5376 61.6121 34.8001 60.9908 34.8701H59.6958C59.5365 35.4819 59.2369 36.0481 58.8207 36.5239L55.3206 39.149C54.8854 38.9744 54.5248 38.6533 54.3011 38.2411C54.0774 37.8289 54.0047 37.3515 54.0955 36.8914C55.5306 36.4889 58.0157 36.0164 58.322 35.6314L58.9082 34.8439L58.0332 34.7651C57.7707 34.5814 57.7269 34.2838 57.5694 33.8901L57.7532 26.3035C57.5782 25.8223 58.1207 25.6473 58.3657 25.6735H58.3482ZM33.3922 55.2234C33.3922 55.2234 33.6022 52.9133 35.3173 52.3708C37.0324 51.8283 46.4827 51.4345 46.4827 51.4345C46.4827 51.4345 47.3578 51.4345 47.174 52.5458C46.9903 53.6571 46.754 55.3197 45.494 55.3197C44.2339 55.3197 34.6785 55.7047 33.3922 55.2234ZM30.4871 56.361C28.9646 56.361 27.3983 56.361 25.7794 56.361C22.7693 56.361 19.6542 56.2734 16.3991 56.1684C21.098 56.2384 25.8057 56.291 30.4871 56.3785V56.361ZM7.17622 55.7397C5.5224 55.6434 3.86859 55.5297 2.23227 55.4072C1.96388 55.3805 1.70121 55.3126 1.45349 55.2059C1.45349 55.0047 1.45349 54.8034 1.45349 54.6021L5.82867 54.6634C5.92368 53.9068 5.86414 53.1387 5.65366 52.4058C5.25114 51.3645 4.06985 51.2333 3.37857 51.102C3.11606 51.0582 2.59979 51.0232 2.06602 50.9882C2.85403 48.8813 4.09004 46.9706 5.68866 45.388C5.68866 45.1955 5.74991 45.003 5.76741 44.8018L7.17622 55.7397Z" fill="white"/>
</svg>
