<svg width="97" height="96" viewBox="0 0 97 96" fill="none" xmlns="http://www.w3.org/2000/svg">
<path d="M67.8135 55.5557C69.6089 55.5557 71.0691 59.3618 71.0691 64.0697C71.1246 66.3017 70.7283 68.5218 69.9041 70.5968C70.2444 69.1102 70.413 67.5895 70.4068 66.0645C70.4068 61.3567 68.9466 57.5505 67.1512 57.5505C66.3533 57.5505 65.6272 58.3006 65.0606 59.5294C65.6351 57.1436 66.6485 55.5557 67.8135 55.5557Z" fill="white"/>
<path d="M23.5268 29.2476C22.7288 29.8142 20.8856 31.418 20.8856 31.418L21.0053 31.0031C20.6343 31.0292 20.262 30.9775 19.9121 30.8515C19.585 30.668 19.9121 27.8193 21.1808 26.8618C22.2973 26.5024 23.4932 26.4692 24.6279 26.7661C25.1466 27.0932 24.8115 28.1784 24.8115 28.1784C24.4192 28.5759 23.9889 28.9341 23.5268 29.2476Z" fill="white"/>
<path d="M0.0223236 52.6113C0.118065 49.6908 1.29087 46.4113 1.29087 45.8448C6.64427 52.0288 53.5484 52.9065 58.6066 49.1403C62.492 46.2437 62.6915 44.4484 65.0929 42.0466C69.2256 37.9133 90.8307 39.9161 94.046 40.0836C93.7827 39.2139 93.5034 38.3202 93.2481 37.5462C87.1368 36.7483 77.8661 35.4875 72.1776 35.3279C70.9374 35.2394 69.6921 35.4062 68.5189 35.8179C67.3456 36.2296 66.2692 36.8776 65.3562 37.7217C64.4945 38.6474 53.1176 38.5197 45.251 39.0942C45.251 39.0942 58.2795 39.3256 64.0876 39.158C63.9121 39.3974 63.7446 39.6288 63.601 39.8443C63.601 39.8443 59.8193 45.5495 58.6146 46.2757C47.2456 53.1299 2.76685 49.7387 2.20039 43.5866C2.12859 42.8365 2.10464 41.4242 2.10464 41.4242C2.57536 43.1717 7.61762 44.2808 8.67873 44.1531L9.7877 39.1181C6.1576 38.6474 4.42632 38.001 4.74545 37.0116C4.74545 37.0116 4.53802 35.312 8.27982 34.1071C10.5057 33.3969 17.0559 32.3117 21.1806 31.8489C27.4011 31.0865 33.6626 30.7081 39.9295 30.7158C47.9078 30.7158 62.6595 31.0669 68.2044 31.6973C71.2681 32.1601 71.9303 24.6994 72.4967 22.9758C74.0126 18.3717 40.7513 19.3931 37.1611 20.4145C35.3181 20.9251 28.7201 24.6675 28.7201 24.6675C30.3951 23.0014 32.34 21.6308 34.4724 20.6139C36.977 19.3278 39.7329 18.606 42.5464 18.4994C42.5619 18.2506 42.6584 18.0137 42.8212 17.8249C42.984 17.6362 43.2041 17.5059 43.4479 17.4541C46.4999 16.9969 49.5937 16.8845 52.6708 17.119C53.8857 17.2218 55.0879 17.4409 56.261 17.7733C56.261 17.7733 48.187 17.5738 46.2403 17.9728C45.9109 18.0251 45.5974 18.1505 45.3228 18.3398C48.562 18.2201 52.966 18.252 59.2449 18.4675C64.1914 18.643 68.1885 18.9064 71.4595 19.2654C72.021 18.5567 72.7915 18.0429 73.6615 17.7972C76.1906 17.3983 80.5787 18.5952 82.8365 19.7203L85.1343 20.8453C85.1343 20.8453 78.4485 18.9143 75.7518 19.3931C75.4249 19.4319 75.1082 19.5321 74.8184 19.6883C81.6877 20.6858 84.5997 22.0822 86.9214 23.678C90.5276 26.1596 92.5062 34.3624 93.3598 35.4237C94.2135 36.4849 94.8438 39.8123 94.9156 40.3789C94.9555 40.706 95.0432 41.895 95.115 42.8365C95.3145 43.8499 95.482 44.7596 95.482 44.7596C94.9714 44.0494 91.3174 42.4535 89.7856 48.837C89.3548 50.6324 89.0755 57.6144 87.6793 60.5588C88.3734 60.0082 88.8761 58.8113 89.3627 56.9361C90.2483 53.7843 91.6286 46.7863 93.3519 45.9645C94.6922 45.3261 95.3305 45.6134 95.6177 46.1719C95.9049 46.7305 96.5432 49.8903 95.123 56.2898C95.123 56.2898 95.123 52.5395 93.655 51.6697C94.3651 53.2656 94.8358 56.1781 94.8358 59.5454C94.8358 64.5883 93.8465 68.1472 92.6577 68.6898C91.0063 69.4398 85.9321 69.0967 84.9428 68.602C83.9535 68.1073 83.7381 64.7799 83.7381 64.7799C83.7381 64.7799 81.7515 63.9101 81.0255 63.6548C77.1321 64.2373 73.0472 64.7001 72.5286 64.74C72.5286 64.8118 72.5286 64.8916 72.5286 64.9714C72.5286 72.2007 70.3984 78.1294 67.6858 78.7677C65.42 79.6135 57.1306 78.1852 55.9977 77.4352C54.8648 76.6851 53.6042 70.5968 53.3489 69.5116C48.9609 67.6365 23.1034 65.7773 20.5663 65.7214H19.7685C19.6727 66.0885 19.5291 66.5752 19.3057 67.2136C18.6755 69.0169 16.5134 72.3443 14.7183 72.8869C13.0934 73.4599 11.3551 73.6365 9.64825 73.4019C7.94136 73.1674 6.31517 72.5285 4.90501 71.5384C2.27219 69.7829 1.71371 66.264 1.61797 63.7744C2.1261 64.0264 2.66149 64.2192 3.21362 64.349C2.70038 64.1124 2.23933 63.776 1.85732 63.3595C1.58001 63.1563 1.34435 62.9017 1.16322 62.6095C0.493042 61.2929 -0.0734177 55.5397 0.0223236 52.6113ZM54.5138 45.8208C58.6624 44.975 59.6039 42.4296 60.1703 41.6715C60.4211 41.2168 60.5937 40.7232 60.6809 40.2113C56.5961 40.6582 47.9157 40.2113 47.3014 40.2113H46.2323L44.9399 46.2916C47.4929 46.3634 51.7852 46.3874 54.5138 45.8208ZM41.8762 40.2353C35.1585 40.2353 24.3879 40.0836 17.8058 39.7246C16.0187 39.6208 14.4151 39.5171 12.979 39.3974C12.8439 39.5317 12.7475 39.6998 12.6998 39.8842C12.596 40.2512 12.4125 40.8497 12.2211 41.48L17.1038 41.9109C21.9705 42.3338 36.9855 42.3259 41.206 42.3099L41.8762 40.2353ZM11.7184 45.5814C12.7795 46.2916 33.2597 47.688 39.762 46.898L40.2486 45.358L39.1397 45.4298C35.0309 45.7011 15.6038 44.1212 11.6387 43.834C11.4871 44.6878 11.4312 45.4059 11.7344 45.5974L11.7184 45.5814ZM25.2256 32.4155C19.8004 32.974 14.9417 33.4608 12.4046 34.1949C5.15234 36.2695 23.5023 36.5408 28.1536 36.4052C31.1774 33.8757 42.7458 32.3357 58.0082 32.2798C44.2457 31.7851 30.4115 31.8808 25.2256 32.4155ZM87.4559 26.6304C85.2407 24.6597 82.3786 23.5721 79.4139 23.5743C76.3103 23.5743 72.4808 29.7344 73.3663 32.9581C74.7306 33.1176 75.7997 33.2693 75.8396 32.7586C75.8396 32.6309 75.8396 32.3277 75.8396 31.9606C75.8396 31.809 81.1052 31.6893 81.1132 31.5218C80.0441 31.3223 76.9885 31.059 75.8476 31.027C75.8955 30.0137 76.0949 28.9045 76.789 28.6332C78.0097 28.2103 82.5254 28.7848 82.8684 29.2955C83.3392 29.9977 84.3763 32.8304 83.4349 33.8677C82.7235 34.1989 81.9456 34.3626 81.1611 34.3465C86.6581 34.921 91.3573 34.9609 91.5328 33.4687C90.7031 31.4978 89.4665 28.5774 87.4559 26.6304ZM92.8093 66.6869C93.7827 66.6869 94.5805 63.6388 94.5805 59.8805C94.5805 56.1222 93.7667 53.0661 92.8093 53.0661C91.8519 53.0661 91.0222 56.0983 91.0222 59.8805C91.0222 63.6627 91.8121 66.6869 92.8093 66.6869ZM89.618 46.5709L75.5364 47.4566L75.4327 48.9168L89.618 46.5709ZM84.0333 61.4923L74.9381 61.3088L74.0126 60.471C74.0126 60.471 73.494 62.8648 73.3743 63.0723C73.2547 63.2797 84.0333 61.4923 84.0333 61.4923ZM67.2789 75.7196C69.5129 75.7196 71.3319 70.8841 71.3319 64.9235C71.3319 58.9629 69.5926 54.1274 67.3587 54.1274C65.4041 54.1274 63.2978 58.8591 63.2978 64.9235C63.2978 70.9878 65.1168 75.7196 67.3587 75.7196H67.2789ZM64.2632 50.9835C65.1089 48.5897 66.1939 46.8103 68.3161 46.3156C74.1323 44.9591 74.5471 49.1722 74.1482 56.7526C74.1482 56.7526 75.8795 48.1987 73.9807 45.7011C73.4464 44.8748 72.7174 44.1923 71.8577 43.7137C70.998 43.2351 70.0339 42.975 69.0501 42.9562C67.0954 43.0121 65.3562 44.2489 64.2632 46.5948C63.0106 49.3397 59.7634 62.2185 59.7634 62.2185C61.4788 58.4921 63.7765 52.5794 64.343 50.9835H64.2632ZM53.2532 59.6012C51.8441 59.2249 50.4717 58.7228 49.1524 58.1011C47.6205 57.2313 47.5567 54.9094 47.5567 54.3747C47.5567 53.8401 52.1283 53.7683 54.7371 53.6885C55.1365 53.3816 55.515 53.0484 55.8701 52.6911C55.8701 52.6911 47.3333 52.7789 45.4983 52.8666C43.6633 52.9544 43.7351 53.7444 45.4983 56.9122C47.1498 59.7848 50.5246 59.7608 53.333 59.6012H53.2532ZM8.05642 62.6095C17.4787 63.4074 35.9803 64.8995 40.2088 65.0033C42.2193 65.0033 44.9 65.0432 47.6046 65.0033L29.1349 62.7451L44.7643 62.9286L23.1752 60.2875L45.7377 60.5109L15.7634 57.5346L43.9107 57.8059C39.6343 55.8908 8.80637 55.1487 7.45007 56.4175C6.82777 57 6.25333 59.4815 5.91027 61.2051C5.64699 62.2025 7.12297 62.5536 8.13621 62.6095H8.05642ZM0.285606 54.3588C0.413261 56.0504 2.16847 56.5132 2.88652 55.7153C3.38116 55.1567 5.39966 50.768 4.55397 50.776C1.8653 50.8159 1.80945 50.2334 0.564842 49.5871C0.604736 49.5871 0.261673 53.9917 0.365387 54.3588H0.285606Z" fill="white"/>
</svg>
